<svg width="214" height="93" viewBox="0 0 214 93" fill="none" xmlns="http://www.w3.org/2000/svg">
<rect x="7" y="7.22931" width="200" height="78.9066" rx="6" fill="#161618"/>
<g filter="url(#filter0_f_19_3)">
<rect x="8.5" y="8.72931" width="197" height="75.9066" rx="4.5" stroke="#6D30E9" stroke-width="3"/>
</g>
<rect x="9.5" y="9.80579" width="197" height="75.8301" rx="5.5" stroke="white"/>
<g filter="url(#filter1_f_19_3)">
<path d="M39.0813 52.5115V61.2302H35.5188V52.5115H27.7141V48.949H35.5188V40.8865H39.0813V48.949H46.8859V52.5115H39.0813ZM67.7331 28.6052V62.9177H63.3972V34.0193L54.655 37.2068V33.2927L67.0534 28.6052H67.7331ZM102.385 43.1365V48.3396C102.385 52.0583 101.948 55.0193 101.073 57.2224C100.198 59.4255 98.9553 61.0037 97.3459 61.9568C95.7366 62.9099 93.8303 63.3865 91.6272 63.3865C89.4553 63.3865 87.5569 62.9099 85.9319 61.9568C84.3069 61.0037 83.0491 59.4255 82.1584 57.2224C81.2678 55.0193 80.8225 52.0583 80.8225 48.3396V43.1365C80.8225 39.4177 81.26 36.4802 82.135 34.324C83.0256 32.1677 84.2756 30.6287 85.885 29.7068C87.51 28.7849 89.4084 28.324 91.5803 28.324C93.7834 28.324 95.6897 28.7849 97.2991 29.7068C98.9241 30.6287 100.174 32.1677 101.049 34.324C101.94 36.4802 102.385 39.4177 102.385 43.1365ZM98.0256 49.0427V42.4099C98.0256 39.8474 97.7834 37.7927 97.2991 36.2458C96.8147 34.699 96.0881 33.5818 95.1194 32.8943C94.1663 32.2068 92.9866 31.863 91.5803 31.863C90.2053 31.863 89.0413 32.2068 88.0881 32.8943C87.135 33.5818 86.4084 34.699 85.9084 36.2458C85.4241 37.7927 85.1819 39.8474 85.1819 42.4099V49.0427C85.1819 51.5896 85.4319 53.6599 85.9319 55.2537C86.4319 56.8318 87.1584 57.988 88.1116 58.7224C89.0803 59.4568 90.2522 59.824 91.6272 59.824C93.0491 59.824 94.2288 59.4568 95.1663 58.7224C96.1194 57.988 96.8303 56.8318 97.2991 55.2537C97.7834 53.6599 98.0256 51.5896 98.0256 49.0427ZM129.865 43.1365V48.3396C129.865 52.0583 129.428 55.0193 128.553 57.2224C127.678 59.4255 126.435 61.0037 124.826 61.9568C123.217 62.9099 121.31 63.3865 119.107 63.3865C116.935 63.3865 115.037 62.9099 113.412 61.9568C111.787 61.0037 110.529 59.4255 109.638 57.2224C108.748 55.0193 108.303 52.0583 108.303 48.3396V43.1365C108.303 39.4177 108.74 36.4802 109.615 34.324C110.506 32.1677 111.756 30.6287 113.365 29.7068C114.99 28.7849 116.888 28.324 119.06 28.324C121.263 28.324 123.17 28.7849 124.779 29.7068C126.404 30.6287 127.654 32.1677 128.529 34.324C129.42 36.4802 129.865 39.4177 129.865 43.1365ZM125.506 49.0427V42.4099C125.506 39.8474 125.263 37.7927 124.779 36.2458C124.295 34.699 123.568 33.5818 122.599 32.8943C121.646 32.2068 120.467 31.863 119.06 31.863C117.685 31.863 116.521 32.2068 115.568 32.8943C114.615 33.5818 113.888 34.699 113.388 36.2458C112.904 37.7927 112.662 39.8474 112.662 42.4099V49.0427C112.662 51.5896 112.912 53.6599 113.412 55.2537C113.912 56.8318 114.638 57.988 115.592 58.7224C116.56 59.4568 117.732 59.824 119.107 59.824C120.529 59.824 121.709 59.4568 122.646 58.7224C123.599 57.988 124.31 56.8318 124.779 55.2537C125.263 53.6599 125.506 51.5896 125.506 49.0427ZM157.345 43.1365V48.3396C157.345 52.0583 156.908 55.0193 156.033 57.2224C155.158 59.4255 153.915 61.0037 152.306 61.9568C150.697 62.9099 148.79 63.3865 146.587 63.3865C144.415 63.3865 142.517 62.9099 140.892 61.9568C139.267 61.0037 138.009 59.4255 137.118 57.2224C136.228 55.0193 135.783 52.0583 135.783 48.3396V43.1365C135.783 39.4177 136.22 36.4802 137.095 34.324C137.986 32.1677 139.236 30.6287 140.845 29.7068C142.47 28.7849 144.368 28.324 146.54 28.324C148.743 28.324 150.65 28.7849 152.259 29.7068C153.884 30.6287 155.134 32.1677 156.009 34.324C156.9 36.4802 157.345 39.4177 157.345 43.1365ZM152.986 49.0427V42.4099C152.986 39.8474 152.743 37.7927 152.259 36.2458C151.775 34.699 151.048 33.5818 150.079 32.8943C149.126 32.2068 147.947 31.863 146.54 31.863C145.165 31.863 144.001 32.2068 143.048 32.8943C142.095 33.5818 141.368 34.699 140.868 36.2458C140.384 37.7927 140.142 39.8474 140.142 42.4099V49.0427C140.142 51.5896 140.392 53.6599 140.892 55.2537C141.392 56.8318 142.118 57.988 143.072 58.7224C144.04 59.4568 145.212 59.824 146.587 59.824C148.009 59.824 149.189 59.4568 150.126 58.7224C151.079 57.988 151.79 56.8318 152.259 55.2537C152.743 53.6599 152.986 51.5896 152.986 49.0427ZM176.364 23.2615V30.4099H172.848V23.2615H176.364ZM175.942 61.5349V67.7927H172.45V61.5349H175.942ZM180.63 54.1287C180.63 53.1912 180.419 52.3474 179.997 51.5974C179.575 50.8474 178.88 50.1599 177.911 49.5349C176.942 48.9099 175.645 48.3318 174.02 47.8005C172.052 47.1912 170.348 46.449 168.911 45.574C167.489 44.699 166.387 43.613 165.606 42.3162C164.841 41.0193 164.458 39.449 164.458 37.6052C164.458 35.6833 164.872 34.0271 165.7 32.6365C166.528 31.2458 167.7 30.1755 169.216 29.4255C170.731 28.6755 172.512 28.3005 174.559 28.3005C176.684 28.3005 178.497 28.7224 179.997 29.5662C181.512 30.4099 182.669 31.6521 183.466 33.2927C184.278 34.9177 184.684 36.9177 184.684 39.2927H180.372C180.372 37.199 179.872 35.4802 178.872 34.1365C177.872 32.7771 176.434 32.0974 174.559 32.0974C173.247 32.0974 172.161 32.324 171.302 32.7771C170.458 33.2302 169.833 33.8708 169.427 34.699C169.02 35.5115 168.817 36.4568 168.817 37.5349C168.817 38.5349 169.02 39.4099 169.427 40.1599C169.833 40.9099 170.52 41.5896 171.489 42.199C172.473 42.7927 173.825 43.3787 175.544 43.9568C177.559 44.5974 179.27 45.3552 180.677 46.2302C182.083 47.0896 183.153 48.1521 183.887 49.4177C184.622 50.6677 184.989 52.2224 184.989 54.0818C184.989 56.0974 184.536 57.8005 183.63 59.1912C182.723 60.5662 181.45 61.613 179.809 62.3318C178.169 63.0505 176.247 63.4099 174.044 63.4099C172.716 63.4099 171.403 63.2302 170.106 62.8708C168.809 62.5115 167.637 61.9255 166.591 61.113C165.544 60.2849 164.708 59.199 164.083 57.8552C163.458 56.4958 163.145 54.8318 163.145 52.863H167.505C167.505 54.1912 167.692 55.2927 168.067 56.1677C168.458 57.0271 168.973 57.7146 169.614 58.2302C170.255 58.7302 170.958 59.0896 171.723 59.3083C172.505 59.5115 173.278 59.613 174.044 59.613C175.45 59.613 176.637 59.3943 177.606 58.9568C178.591 58.5037 179.341 57.863 179.856 57.0349C180.372 56.2068 180.63 55.238 180.63 54.1287Z" fill="#6D30E9"/>
</g>
<path d="M40.1203 51.4074V60.1262H38.9953V51.4074H31.1906V50.2824H38.9953V42.2199H40.1203V50.2824H47.925V51.4074H40.1203ZM67.7175 28.8137V63.0324H66.4519V30.5012L56.655 34.1808V32.798L67.4597 28.8137H67.7175ZM102.393 42.8293V49.1105C102.393 52.0793 102.002 54.6418 101.221 56.798C100.455 58.9387 99.3147 60.5949 97.7991 61.7668C96.2834 62.923 94.4241 63.5012 92.2209 63.5012C90.0491 63.5012 88.1975 62.923 86.6663 61.7668C85.135 60.5949 83.9709 58.9387 83.1741 56.798C82.3772 54.6418 81.9788 52.0793 81.9788 49.1105V42.8293C81.9788 39.8605 82.3694 37.298 83.1506 35.1418C83.9475 32.9855 85.1038 31.3293 86.6194 30.173C88.135 29.0012 89.9866 28.4152 92.1741 28.4152C94.3772 28.4152 96.2366 29.0012 97.7522 30.173C99.2678 31.3293 100.416 32.9855 101.198 35.1418C101.994 37.298 102.393 39.8605 102.393 42.8293ZM101.127 49.0637V42.8293C101.127 40.2199 100.799 37.9308 100.143 35.9621C99.4866 33.9777 98.4944 32.4387 97.1663 31.3449C95.8538 30.2355 94.1897 29.6808 92.1741 29.6808C90.1741 29.6808 88.51 30.2355 87.1819 31.3449C85.8538 32.4387 84.8616 33.9777 84.2053 35.9621C83.5647 37.9308 83.2444 40.2199 83.2444 42.8293V49.0637C83.2444 51.6262 83.5725 53.8996 84.2288 55.884C84.885 57.8683 85.8772 59.423 87.2053 60.548C88.5491 61.673 90.2209 62.2355 92.2209 62.2355C94.2366 62.2355 95.9006 61.673 97.2131 60.548C98.5256 59.423 99.5022 57.8683 100.143 55.884C100.799 53.8996 101.127 51.6262 101.127 49.0637ZM129.17 42.8293V49.1105C129.17 52.0793 128.779 54.6418 127.998 56.798C127.232 58.9387 126.092 60.5949 124.576 61.7668C123.06 62.923 121.201 63.5012 118.998 63.5012C116.826 63.5012 114.974 62.923 113.443 61.7668C111.912 60.5949 110.748 58.9387 109.951 56.798C109.154 54.6418 108.756 52.0793 108.756 49.1105V42.8293C108.756 39.8605 109.146 37.298 109.928 35.1418C110.724 32.9855 111.881 31.3293 113.396 30.173C114.912 29.0012 116.763 28.4152 118.951 28.4152C121.154 28.4152 123.013 29.0012 124.529 30.173C126.045 31.3293 127.193 32.9855 127.974 35.1418C128.771 37.298 129.17 39.8605 129.17 42.8293ZM127.904 49.0637V42.8293C127.904 40.2199 127.576 37.9308 126.92 35.9621C126.263 33.9777 125.271 32.4387 123.943 31.3449C122.631 30.2355 120.967 29.6808 118.951 29.6808C116.951 29.6808 115.287 30.2355 113.959 31.3449C112.631 32.4387 111.638 33.9777 110.982 35.9621C110.342 37.9308 110.021 40.2199 110.021 42.8293V49.0637C110.021 51.6262 110.349 53.8996 111.006 55.884C111.662 57.8683 112.654 59.423 113.982 60.548C115.326 61.673 116.998 62.2355 118.998 62.2355C121.013 62.2355 122.678 61.673 123.99 60.548C125.303 59.423 126.279 57.8683 126.92 55.884C127.576 53.8996 127.904 51.6262 127.904 49.0637ZM155.947 42.8293V49.1105C155.947 52.0793 155.556 54.6418 154.775 56.798C154.009 58.9387 152.868 60.5949 151.353 61.7668C149.837 62.923 147.978 63.5012 145.775 63.5012C143.603 63.5012 141.751 62.923 140.22 61.7668C138.689 60.5949 137.525 58.9387 136.728 56.798C135.931 54.6418 135.533 52.0793 135.533 49.1105V42.8293C135.533 39.8605 135.923 37.298 136.704 35.1418C137.501 32.9855 138.658 31.3293 140.173 30.173C141.689 29.0012 143.54 28.4152 145.728 28.4152C147.931 28.4152 149.79 29.0012 151.306 30.173C152.822 31.3293 153.97 32.9855 154.751 35.1418C155.548 37.298 155.947 39.8605 155.947 42.8293ZM154.681 49.0637V42.8293C154.681 40.2199 154.353 37.9308 153.697 35.9621C153.04 33.9777 152.048 32.4387 150.72 31.3449C149.408 30.2355 147.743 29.6808 145.728 29.6808C143.728 29.6808 142.064 30.2355 140.736 31.3449C139.408 32.4387 138.415 33.9777 137.759 35.9621C137.118 37.9308 136.798 40.2199 136.798 42.8293V49.0637C136.798 51.6262 137.126 53.8996 137.783 55.884C138.439 57.8683 139.431 59.423 140.759 60.548C142.103 61.673 143.775 62.2355 145.775 62.2355C147.79 62.2355 149.454 61.673 150.767 60.548C152.079 59.423 153.056 57.8683 153.697 55.884C154.353 53.8996 154.681 51.6262 154.681 49.0637ZM173.653 24.0558V29.3527H172.364V24.0558H173.653ZM173.911 62.5871V67.9074H172.622V62.5871H173.911ZM181.575 54.9699C181.575 53.6105 181.309 52.4543 180.778 51.5012C180.262 50.548 179.372 49.6887 178.106 48.923C176.841 48.1574 175.098 47.3762 172.88 46.5793C170.911 45.9074 169.208 45.1965 167.77 44.4465C166.348 43.6965 165.247 42.7433 164.466 41.5871C163.7 40.4152 163.317 38.8918 163.317 37.0168C163.317 35.2824 163.708 33.7746 164.489 32.4933C165.286 31.1965 166.403 30.1965 167.841 29.4933C169.294 28.7746 170.997 28.4152 172.95 28.4152C174.966 28.4152 176.7 28.8058 178.153 29.5871C179.606 30.3683 180.716 31.509 181.481 33.009C182.262 34.4933 182.653 36.3215 182.653 38.4933H181.387C181.387 35.9777 180.669 33.8762 179.231 32.1887C177.794 30.5012 175.7 29.6574 172.95 29.6574C171.044 29.6574 169.466 30.009 168.216 30.7121C166.981 31.4152 166.067 32.3293 165.473 33.4543C164.88 34.5637 164.583 35.7355 164.583 36.9699C164.583 38.2512 164.802 39.3683 165.239 40.3215C165.677 41.2746 166.52 42.1496 167.77 42.9465C169.02 43.7433 170.856 44.548 173.278 45.3605C175.2 46.0168 176.872 46.7277 178.294 47.4933C179.731 48.2433 180.848 49.2043 181.645 50.3762C182.442 51.5324 182.841 53.048 182.841 54.923C182.841 56.6887 182.434 58.2199 181.622 59.5168C180.809 60.798 179.669 61.7902 178.2 62.4933C176.747 63.1808 175.052 63.5246 173.114 63.5246C171.786 63.5246 170.473 63.3527 169.177 63.009C167.88 62.6652 166.708 62.1027 165.661 61.3215C164.614 60.5402 163.778 59.509 163.153 58.2277C162.528 56.9308 162.216 55.3371 162.216 53.4465H163.481C163.481 55.134 163.77 56.548 164.348 57.6887C164.927 58.8293 165.684 59.7355 166.622 60.4074C167.575 61.0793 168.614 61.5637 169.739 61.8605C170.88 62.1418 172.005 62.2824 173.114 62.2824C174.895 62.2824 176.411 61.9387 177.661 61.2512C178.927 60.548 179.895 59.6418 180.567 58.5324C181.239 57.4074 181.575 56.2199 181.575 54.9699Z" fill="white"/>
<defs>
<filter id="filter0_f_19_3" x="0.4" y="0.629309" width="213.2" height="92.1066" filterUnits="userSpaceOnUse" color-interpolation-filters="sRGB">
<feFlood flood-opacity="0" result="BackgroundImageFix"/>
<feBlend mode="normal" in="SourceGraphic" in2="BackgroundImageFix" result="shape"/>
<feGaussianBlur stdDeviation="3.3" result="effect1_foregroundBlur_19_3"/>
</filter>
<filter id="filter1_f_19_3" x="21.9139" y="17.4615" width="168.875" height="56.1313" filterUnits="userSpaceOnUse" color-interpolation-filters="sRGB">
<feFlood flood-opacity="0" result="BackgroundImageFix"/>
<feBlend mode="normal" in="SourceGraphic" in2="BackgroundImageFix" result="shape"/>
<feGaussianBlur stdDeviation="2.9" result="effect1_foregroundBlur_19_3"/>
</filter>
</defs>
</svg>
