<svg width="214" height="90" viewBox="0 0 214 90" fill="none" xmlns="http://www.w3.org/2000/svg">
<rect x="7" y="7" width="200" height="76" rx="6" fill="#161618"/>
<g filter="url(#filter0_f_19_9)">
<rect x="8.5" y="8.5" width="197" height="73" rx="4.5" stroke="#6D30E9" stroke-width="3"/>
</g>
<rect x="9.5" y="9.5" width="197" height="73" rx="5.5" stroke="white"/>
<g filter="url(#filter1_f_19_9)">
<path d="M39.5813 50.5938V59.3125H36.0188V50.5938H28.2141V47.0312H36.0188V38.9688H39.5813V47.0312H47.3859V50.5938H39.5813ZM68.2331 26.6875V61H63.8972V32.1016L55.155 35.2891V31.375L67.5534 26.6875H68.2331ZM103.823 57.4375V61H81.4866V57.8828L92.6663 45.4375C94.0413 43.9062 95.1038 42.6094 95.8538 41.5469C96.6194 40.4688 97.1506 39.5078 97.4475 38.6641C97.76 37.8047 97.9163 36.9297 97.9163 36.0391C97.9163 34.3672 97.4006 32.9375 96.3694 31.75C95.3381 30.5625 93.8694 29.9688 91.9631 29.9688C90.4475 29.9688 89.1819 30.2656 88.1663 30.8594C87.1663 31.4375 86.4163 32.25 85.9163 33.2969C85.4163 34.3438 85.1663 35.5469 85.1663 36.9062H80.8303C80.8303 34.9844 81.2522 33.2266 82.0959 31.6328C82.9397 30.0391 84.1897 28.7734 85.8459 27.8359C87.5022 26.8828 89.5413 26.4062 91.9631 26.4062C95.1819 26.4062 97.6975 27.2422 99.51 28.9141C101.338 30.5859 102.252 32.7891 102.252 35.5234C102.252 36.8672 101.963 38.2188 101.385 39.5781C100.807 40.9375 100.033 42.2891 99.0647 43.6328C98.0959 44.9609 97.0256 46.2578 95.8538 47.5234L86.7131 57.4375H103.823ZM130.365 41.2188V46.4219C130.365 50.1406 129.928 53.1016 129.053 55.3047C128.178 57.5078 126.935 59.0859 125.326 60.0391C123.717 60.9922 121.81 61.4688 119.607 61.4688C117.435 61.4688 115.537 60.9922 113.912 60.0391C112.287 59.0859 111.029 57.5078 110.138 55.3047C109.248 53.1016 108.803 50.1406 108.803 46.4219V41.2188C108.803 37.5 109.24 34.5625 110.115 32.4062C111.006 30.25 112.256 28.7109 113.865 27.7891C115.49 26.8672 117.388 26.4062 119.56 26.4062C121.763 26.4062 123.67 26.8672 125.279 27.7891C126.904 28.7109 128.154 30.25 129.029 32.4062C129.92 34.5625 130.365 37.5 130.365 41.2188ZM126.006 47.125V40.4922C126.006 37.9297 125.763 35.875 125.279 34.3281C124.795 32.7812 124.068 31.6641 123.099 30.9766C122.146 30.2891 120.967 29.9453 119.56 29.9453C118.185 29.9453 117.021 30.2891 116.068 30.9766C115.115 31.6641 114.388 32.7812 113.888 34.3281C113.404 35.875 113.162 37.9297 113.162 40.4922V47.125C113.162 49.6719 113.412 51.7422 113.912 53.3359C114.412 54.9141 115.138 56.0703 116.092 56.8047C117.06 57.5391 118.232 57.9062 119.607 57.9062C121.029 57.9062 122.209 57.5391 123.146 56.8047C124.099 56.0703 124.81 54.9141 125.279 53.3359C125.763 51.7422 126.006 49.6719 126.006 47.125ZM157.845 41.2188V46.4219C157.845 50.1406 157.408 53.1016 156.533 55.3047C155.658 57.5078 154.415 59.0859 152.806 60.0391C151.197 60.9922 149.29 61.4688 147.087 61.4688C144.915 61.4688 143.017 60.9922 141.392 60.0391C139.767 59.0859 138.509 57.5078 137.618 55.3047C136.728 53.1016 136.283 50.1406 136.283 46.4219V41.2188C136.283 37.5 136.72 34.5625 137.595 32.4062C138.486 30.25 139.736 28.7109 141.345 27.7891C142.97 26.8672 144.868 26.4062 147.04 26.4062C149.243 26.4062 151.15 26.8672 152.759 27.7891C154.384 28.7109 155.634 30.25 156.509 32.4062C157.4 34.5625 157.845 37.5 157.845 41.2188ZM153.486 47.125V40.4922C153.486 37.9297 153.243 35.875 152.759 34.3281C152.275 32.7812 151.548 31.6641 150.579 30.9766C149.626 30.2891 148.447 29.9453 147.04 29.9453C145.665 29.9453 144.501 30.2891 143.548 30.9766C142.595 31.6641 141.868 32.7812 141.368 34.3281C140.884 35.875 140.642 37.9297 140.642 40.4922V47.125C140.642 49.6719 140.892 51.7422 141.392 53.3359C141.892 54.9141 142.618 56.0703 143.572 56.8047C144.54 57.5391 145.712 57.9062 147.087 57.9062C148.509 57.9062 149.689 57.5391 150.626 56.8047C151.579 56.0703 152.29 54.9141 152.759 53.3359C153.243 51.7422 153.486 49.6719 153.486 47.125ZM176.864 21.3438V28.4922H173.348V21.3438H176.864ZM176.442 59.6172V65.875H172.95V59.6172H176.442ZM181.13 52.2109C181.13 51.2734 180.919 50.4297 180.497 49.6797C180.075 48.9297 179.38 48.2422 178.411 47.6172C177.442 46.9922 176.145 46.4141 174.52 45.8828C172.552 45.2734 170.848 44.5312 169.411 43.6562C167.989 42.7812 166.887 41.6953 166.106 40.3984C165.341 39.1016 164.958 37.5312 164.958 35.6875C164.958 33.7656 165.372 32.1094 166.2 30.7188C167.028 29.3281 168.2 28.2578 169.716 27.5078C171.231 26.7578 173.012 26.3828 175.059 26.3828C177.184 26.3828 178.997 26.8047 180.497 27.6484C182.012 28.4922 183.169 29.7344 183.966 31.375C184.778 33 185.184 35 185.184 37.375H180.872C180.872 35.2812 180.372 33.5625 179.372 32.2188C178.372 30.8594 176.934 30.1797 175.059 30.1797C173.747 30.1797 172.661 30.4062 171.802 30.8594C170.958 31.3125 170.333 31.9531 169.927 32.7812C169.52 33.5938 169.317 34.5391 169.317 35.6172C169.317 36.6172 169.52 37.4922 169.927 38.2422C170.333 38.9922 171.02 39.6719 171.989 40.2812C172.973 40.875 174.325 41.4609 176.044 42.0391C178.059 42.6797 179.77 43.4375 181.177 44.3125C182.583 45.1719 183.653 46.2344 184.387 47.5C185.122 48.75 185.489 50.3047 185.489 52.1641C185.489 54.1797 185.036 55.8828 184.13 57.2734C183.223 58.6484 181.95 59.6953 180.309 60.4141C178.669 61.1328 176.747 61.4922 174.544 61.4922C173.216 61.4922 171.903 61.3125 170.606 60.9531C169.309 60.5938 168.137 60.0078 167.091 59.1953C166.044 58.3672 165.208 57.2812 164.583 55.9375C163.958 54.5781 163.645 52.9141 163.645 50.9453H168.005C168.005 52.2734 168.192 53.375 168.567 54.25C168.958 55.1094 169.473 55.7969 170.114 56.3125C170.755 56.8125 171.458 57.1719 172.223 57.3906C173.005 57.5938 173.778 57.6953 174.544 57.6953C175.95 57.6953 177.137 57.4766 178.106 57.0391C179.091 56.5859 179.841 55.9453 180.356 55.1172C180.872 54.2891 181.13 53.3203 181.13 52.2109Z" fill="#6D30E9"/>
</g>
<path d="M40.1203 49.375V58.0938H38.9953V49.375H31.1906V48.25H38.9953V40.1875H40.1203V48.25H47.925V49.375H40.1203ZM67.7175 26.7812V61H66.4519V28.4688L56.655 32.1484V30.7656L67.4597 26.7812H67.7175ZM103.049 59.7344V61H82.635V59.7344L93.8147 46.8438C95.2366 45.2031 96.3928 43.7266 97.2834 42.4141C98.1897 41.0859 98.8538 39.8672 99.2756 38.7578C99.7131 37.6328 99.9319 36.5703 99.9319 35.5703C99.9319 33.1484 99.2288 31.2266 97.8225 29.8047C96.4163 28.3828 94.3459 27.6719 91.6116 27.6719C89.9866 27.6719 88.5256 28.0547 87.2288 28.8203C85.9319 29.5859 84.9084 30.6406 84.1584 31.9844C83.4241 33.3125 83.0569 34.8203 83.0569 36.5078H81.7913C81.7913 34.6641 82.2053 32.9766 83.0334 31.4453C83.8616 29.9141 85.01 28.6953 86.4788 27.7891C87.9631 26.8672 89.6741 26.4062 91.6116 26.4062C94.5491 26.4062 96.885 27.1875 98.6194 28.75C100.354 30.3125 101.221 32.5859 101.221 35.5703C101.221 36.9766 100.877 38.3906 100.19 39.8125C99.5022 41.2344 98.6194 42.6484 97.5413 44.0547C96.4631 45.4609 95.3459 46.8438 94.1897 48.2031L84.2991 59.7344H103.049ZM129.17 40.7969V47.0781C129.17 50.0469 128.779 52.6094 127.998 54.7656C127.232 56.9062 126.092 58.5625 124.576 59.7344C123.06 60.8906 121.201 61.4688 118.998 61.4688C116.826 61.4688 114.974 60.8906 113.443 59.7344C111.912 58.5625 110.748 56.9062 109.951 54.7656C109.154 52.6094 108.756 50.0469 108.756 47.0781V40.7969C108.756 37.8281 109.146 35.2656 109.928 33.1094C110.724 30.9531 111.881 29.2969 113.396 28.1406C114.912 26.9688 116.763 26.3828 118.951 26.3828C121.154 26.3828 123.013 26.9688 124.529 28.1406C126.045 29.2969 127.193 30.9531 127.974 33.1094C128.771 35.2656 129.17 37.8281 129.17 40.7969ZM127.904 47.0312V40.7969C127.904 38.1875 127.576 35.8984 126.92 33.9297C126.263 31.9453 125.271 30.4062 123.943 29.3125C122.631 28.2031 120.967 27.6484 118.951 27.6484C116.951 27.6484 115.287 28.2031 113.959 29.3125C112.631 30.4062 111.638 31.9453 110.982 33.9297C110.342 35.8984 110.021 38.1875 110.021 40.7969V47.0312C110.021 49.5938 110.349 51.8672 111.006 53.8516C111.662 55.8359 112.654 57.3906 113.982 58.5156C115.326 59.6406 116.998 60.2031 118.998 60.2031C121.013 60.2031 122.678 59.6406 123.99 58.5156C125.303 57.3906 126.279 55.8359 126.92 53.8516C127.576 51.8672 127.904 49.5938 127.904 47.0312ZM155.947 40.7969V47.0781C155.947 50.0469 155.556 52.6094 154.775 54.7656C154.009 56.9062 152.868 58.5625 151.353 59.7344C149.837 60.8906 147.978 61.4688 145.775 61.4688C143.603 61.4688 141.751 60.8906 140.22 59.7344C138.689 58.5625 137.525 56.9062 136.728 54.7656C135.931 52.6094 135.533 50.0469 135.533 47.0781V40.7969C135.533 37.8281 135.923 35.2656 136.704 33.1094C137.501 30.9531 138.658 29.2969 140.173 28.1406C141.689 26.9688 143.54 26.3828 145.728 26.3828C147.931 26.3828 149.79 26.9688 151.306 28.1406C152.822 29.2969 153.97 30.9531 154.751 33.1094C155.548 35.2656 155.947 37.8281 155.947 40.7969ZM154.681 47.0312V40.7969C154.681 38.1875 154.353 35.8984 153.697 33.9297C153.04 31.9453 152.048 30.4062 150.72 29.3125C149.408 28.2031 147.743 27.6484 145.728 27.6484C143.728 27.6484 142.064 28.2031 140.736 29.3125C139.408 30.4062 138.415 31.9453 137.759 33.9297C137.118 35.8984 136.798 38.1875 136.798 40.7969V47.0312C136.798 49.5938 137.126 51.8672 137.783 53.8516C138.439 55.8359 139.431 57.3906 140.759 58.5156C142.103 59.6406 143.775 60.2031 145.775 60.2031C147.79 60.2031 149.454 59.6406 150.767 58.5156C152.079 57.3906 153.056 55.8359 153.697 53.8516C154.353 51.8672 154.681 49.5938 154.681 47.0312ZM173.653 22.0234V27.3203H172.364V22.0234H173.653ZM173.911 60.5547V65.875H172.622V60.5547H173.911ZM181.575 52.9375C181.575 51.5781 181.309 50.4219 180.778 49.4688C180.262 48.5156 179.372 47.6562 178.106 46.8906C176.841 46.125 175.098 45.3438 172.88 44.5469C170.911 43.875 169.208 43.1641 167.77 42.4141C166.348 41.6641 165.247 40.7109 164.466 39.5547C163.7 38.3828 163.317 36.8594 163.317 34.9844C163.317 33.25 163.708 31.7422 164.489 30.4609C165.286 29.1641 166.403 28.1641 167.841 27.4609C169.294 26.7422 170.997 26.3828 172.95 26.3828C174.966 26.3828 176.7 26.7734 178.153 27.5547C179.606 28.3359 180.716 29.4766 181.481 30.9766C182.262 32.4609 182.653 34.2891 182.653 36.4609H181.387C181.387 33.9453 180.669 31.8438 179.231 30.1562C177.794 28.4688 175.7 27.625 172.95 27.625C171.044 27.625 169.466 27.9766 168.216 28.6797C166.981 29.3828 166.067 30.2969 165.473 31.4219C164.88 32.5312 164.583 33.7031 164.583 34.9375C164.583 36.2188 164.802 37.3359 165.239 38.2891C165.677 39.2422 166.52 40.1172 167.77 40.9141C169.02 41.7109 170.856 42.5156 173.278 43.3281C175.2 43.9844 176.872 44.6953 178.294 45.4609C179.731 46.2109 180.848 47.1719 181.645 48.3438C182.442 49.5 182.841 51.0156 182.841 52.8906C182.841 54.6562 182.434 56.1875 181.622 57.4844C180.809 58.7656 179.669 59.7578 178.2 60.4609C176.747 61.1484 175.052 61.4922 173.114 61.4922C171.786 61.4922 170.473 61.3203 169.177 60.9766C167.88 60.6328 166.708 60.0703 165.661 59.2891C164.614 58.5078 163.778 57.4766 163.153 56.1953C162.528 54.8984 162.216 53.3047 162.216 51.4141H163.481C163.481 53.1016 163.77 54.5156 164.348 55.6562C164.927 56.7969 165.684 57.7031 166.622 58.375C167.575 59.0469 168.614 59.5312 169.739 59.8281C170.88 60.1094 172.005 60.25 173.114 60.25C174.895 60.25 176.411 59.9062 177.661 59.2188C178.927 58.5156 179.895 57.6094 180.567 56.5C181.239 55.375 181.575 54.1875 181.575 52.9375Z" fill="white"/>
<defs>
<filter id="filter0_f_19_9" x="0.4" y="0.4" width="213.2" height="89.2" filterUnits="userSpaceOnUse" color-interpolation-filters="sRGB">
<feFlood flood-opacity="0" result="BackgroundImageFix"/>
<feBlend mode="normal" in="SourceGraphic" in2="BackgroundImageFix" result="shape"/>
<feGaussianBlur stdDeviation="3.3" result="effect1_foregroundBlur_19_9"/>
</filter>
<filter id="filter1_f_19_9" x="22.4139" y="15.5437" width="168.875" height="56.1313" filterUnits="userSpaceOnUse" color-interpolation-filters="sRGB">
<feFlood flood-opacity="0" result="BackgroundImageFix"/>
<feBlend mode="normal" in="SourceGraphic" in2="BackgroundImageFix" result="shape"/>
<feGaussianBlur stdDeviation="2.9" result="effect1_foregroundBlur_19_9"/>
</filter>
</defs>
</svg>
