<svg width="214" height="90" viewBox="0 0 214 90" fill="none" xmlns="http://www.w3.org/2000/svg">
<rect x="7" y="7" width="200" height="76" rx="6" fill="#161618"/>
<g filter="url(#filter0_f_19_8)">
<rect x="8.5" y="8.5" width="197" height="73" rx="4.5" stroke="#6D30E9" stroke-width="3"/>
</g>
<rect x="9.5" y="9.5" width="197" height="73" rx="5.5" stroke="white"/>
<g filter="url(#filter1_f_19_8)">
<path d="M78.1784 52.5156V56.0781H53.5222V53.5234L68.8034 29.875H72.3425L68.5456 36.7188L58.4441 52.5156H78.1784ZM73.4206 29.875V64H69.0847V29.875H73.4206ZM104.018 44.2188V49.4219C104.018 53.1406 103.58 56.1016 102.705 58.3047C101.83 60.5078 100.588 62.0859 98.9787 63.0391C97.3694 63.9922 95.4631 64.4688 93.26 64.4688C91.0881 64.4688 89.1897 63.9922 87.5647 63.0391C85.9397 62.0859 84.6819 60.5078 83.7912 58.3047C82.9006 56.1016 82.4553 53.1406 82.4553 49.4219V44.2188C82.4553 40.5 82.8928 37.5625 83.7678 35.4062C84.6584 33.25 85.9084 31.7109 87.5178 30.7891C89.1428 29.8672 91.0412 29.4062 93.2131 29.4062C95.4162 29.4062 97.3225 29.8672 98.9319 30.7891C100.557 31.7109 101.807 33.25 102.682 35.4062C103.572 37.5625 104.018 40.5 104.018 44.2188ZM99.6584 50.125V43.4922C99.6584 40.9297 99.4162 38.875 98.9319 37.3281C98.4475 35.7812 97.7209 34.6641 96.7522 33.9766C95.7991 33.2891 94.6194 32.9453 93.2131 32.9453C91.8381 32.9453 90.6741 33.2891 89.7209 33.9766C88.7678 34.6641 88.0412 35.7812 87.5412 37.3281C87.0569 38.875 86.8147 40.9297 86.8147 43.4922V50.125C86.8147 52.6719 87.0647 54.7422 87.5647 56.3359C88.0647 57.9141 88.7912 59.0703 89.7444 59.8047C90.7131 60.5391 91.885 60.9062 93.26 60.9062C94.6819 60.9062 95.8616 60.5391 96.7991 59.8047C97.7522 59.0703 98.4631 57.9141 98.9319 56.3359C99.4162 54.7422 99.6584 52.6719 99.6584 50.125ZM131.498 44.2188V49.4219C131.498 53.1406 131.06 56.1016 130.185 58.3047C129.31 60.5078 128.068 62.0859 126.459 63.0391C124.849 63.9922 122.943 64.4688 120.74 64.4688C118.568 64.4688 116.67 63.9922 115.045 63.0391C113.42 62.0859 112.162 60.5078 111.271 58.3047C110.381 56.1016 109.935 53.1406 109.935 49.4219V44.2188C109.935 40.5 110.373 37.5625 111.248 35.4062C112.138 33.25 113.388 31.7109 114.998 30.7891C116.623 29.8672 118.521 29.4062 120.693 29.4062C122.896 29.4062 124.802 29.8672 126.412 30.7891C128.037 31.7109 129.287 33.25 130.162 35.4062C131.052 37.5625 131.498 40.5 131.498 44.2188ZM127.138 50.125V43.4922C127.138 40.9297 126.896 38.875 126.412 37.3281C125.927 35.7812 125.201 34.6641 124.232 33.9766C123.279 33.2891 122.099 32.9453 120.693 32.9453C119.318 32.9453 118.154 33.2891 117.201 33.9766C116.248 34.6641 115.521 35.7812 115.021 37.3281C114.537 38.875 114.295 40.9297 114.295 43.4922V50.125C114.295 52.6719 114.545 54.7422 115.045 56.3359C115.545 57.9141 116.271 59.0703 117.224 59.8047C118.193 60.5391 119.365 60.9062 120.74 60.9062C122.162 60.9062 123.342 60.5391 124.279 59.8047C125.232 59.0703 125.943 57.9141 126.412 56.3359C126.896 54.7422 127.138 52.6719 127.138 50.125ZM150.517 24.3438V31.4922H147.001V24.3438H150.517ZM150.095 62.6172V68.875H146.603V62.6172H150.095ZM154.783 55.2109C154.783 54.2734 154.572 53.4297 154.15 52.6797C153.728 51.9297 153.033 51.2422 152.064 50.6172C151.095 49.9922 149.798 49.4141 148.173 48.8828C146.204 48.2734 144.501 47.5312 143.064 46.6562C141.642 45.7812 140.54 44.6953 139.759 43.3984C138.993 42.1016 138.611 40.5312 138.611 38.6875C138.611 36.7656 139.025 35.1094 139.853 33.7188C140.681 32.3281 141.853 31.2578 143.368 30.5078C144.884 29.7578 146.665 29.3828 148.712 29.3828C150.837 29.3828 152.65 29.8047 154.15 30.6484C155.665 31.4922 156.822 32.7344 157.618 34.375C158.431 36 158.837 38 158.837 40.375H154.525C154.525 38.2812 154.025 36.5625 153.025 35.2188C152.025 33.8594 150.587 33.1797 148.712 33.1797C147.4 33.1797 146.314 33.4062 145.454 33.8594C144.611 34.3125 143.986 34.9531 143.579 35.7812C143.173 36.5938 142.97 37.5391 142.97 38.6172C142.97 39.6172 143.173 40.4922 143.579 41.2422C143.986 41.9922 144.673 42.6719 145.642 43.2812C146.626 43.875 147.978 44.4609 149.697 45.0391C151.712 45.6797 153.423 46.4375 154.829 47.3125C156.236 48.1719 157.306 49.2344 158.04 50.5C158.775 51.75 159.142 53.3047 159.142 55.1641C159.142 57.1797 158.689 58.8828 157.783 60.2734C156.876 61.6484 155.603 62.6953 153.962 63.4141C152.322 64.1328 150.4 64.4922 148.197 64.4922C146.868 64.4922 145.556 64.3125 144.259 63.9531C142.962 63.5938 141.79 63.0078 140.743 62.1953C139.697 61.3672 138.861 60.2812 138.236 58.9375C137.611 57.5781 137.298 55.9141 137.298 53.9453H141.658C141.658 55.2734 141.845 56.375 142.22 57.25C142.611 58.1094 143.126 58.7969 143.767 59.3125C144.408 59.8125 145.111 60.1719 145.876 60.3906C146.658 60.5938 147.431 60.6953 148.197 60.6953C149.603 60.6953 150.79 60.4766 151.759 60.0391C152.743 59.5859 153.493 58.9453 154.009 58.1172C154.525 57.2891 154.783 56.3203 154.783 55.2109Z" fill="#6D30E9"/>
</g>
<path d="M78.8269 53.4297V54.6953H55.1081V53.9922L71.3972 29.875H72.5691L69.6862 34.6328L57.0769 53.4297H78.8269ZM72.9206 29.875V64H71.655V29.875H72.9206ZM103.307 43.7969V50.0781C103.307 53.0469 102.916 55.6094 102.135 57.7656C101.369 59.9062 100.229 61.5625 98.7131 62.7344C97.1975 63.8906 95.3381 64.4688 93.135 64.4688C90.9631 64.4688 89.1116 63.8906 87.5803 62.7344C86.0491 61.5625 84.885 59.9062 84.0881 57.7656C83.2912 55.6094 82.8928 53.0469 82.8928 50.0781V43.7969C82.8928 40.8281 83.2834 38.2656 84.0647 36.1094C84.8616 33.9531 86.0178 32.2969 87.5334 31.1406C89.0491 29.9688 90.9006 29.3828 93.0881 29.3828C95.2912 29.3828 97.1506 29.9688 98.6662 31.1406C100.182 32.2969 101.33 33.9531 102.112 36.1094C102.908 38.2656 103.307 40.8281 103.307 43.7969ZM102.041 50.0312V43.7969C102.041 41.1875 101.713 38.8984 101.057 36.9297C100.401 34.9453 99.4084 33.4062 98.0803 32.3125C96.7678 31.2031 95.1037 30.6484 93.0881 30.6484C91.0881 30.6484 89.4241 31.2031 88.0959 32.3125C86.7678 33.4062 85.7756 34.9453 85.1194 36.9297C84.4787 38.8984 84.1584 41.1875 84.1584 43.7969V50.0312C84.1584 52.5938 84.4866 54.8672 85.1428 56.8516C85.7991 58.8359 86.7912 60.3906 88.1194 61.5156C89.4631 62.6406 91.135 63.2031 93.135 63.2031C95.1506 63.2031 96.8147 62.6406 98.1272 61.5156C99.4397 60.3906 100.416 58.8359 101.057 56.8516C101.713 54.8672 102.041 52.5938 102.041 50.0312ZM130.084 43.7969V50.0781C130.084 53.0469 129.693 55.6094 128.912 57.7656C128.146 59.9062 127.006 61.5625 125.49 62.7344C123.974 63.8906 122.115 64.4688 119.912 64.4688C117.74 64.4688 115.888 63.8906 114.357 62.7344C112.826 61.5625 111.662 59.9062 110.865 57.7656C110.068 55.6094 109.67 53.0469 109.67 50.0781V43.7969C109.67 40.8281 110.06 38.2656 110.842 36.1094C111.638 33.9531 112.795 32.2969 114.31 31.1406C115.826 29.9688 117.677 29.3828 119.865 29.3828C122.068 29.3828 123.927 29.9688 125.443 31.1406C126.959 32.2969 128.107 33.9531 128.888 36.1094C129.685 38.2656 130.084 40.8281 130.084 43.7969ZM128.818 50.0312V43.7969C128.818 41.1875 128.49 38.8984 127.834 36.9297C127.177 34.9453 126.185 33.4062 124.857 32.3125C123.545 31.2031 121.881 30.6484 119.865 30.6484C117.865 30.6484 116.201 31.2031 114.873 32.3125C113.545 33.4062 112.552 34.9453 111.896 36.9297C111.256 38.8984 110.935 41.1875 110.935 43.7969V50.0312C110.935 52.5938 111.263 54.8672 111.92 56.8516C112.576 58.8359 113.568 60.3906 114.896 61.5156C116.24 62.6406 117.912 63.2031 119.912 63.2031C121.927 63.2031 123.592 62.6406 124.904 61.5156C126.217 60.3906 127.193 58.8359 127.834 56.8516C128.49 54.8672 128.818 52.5938 128.818 50.0312ZM147.79 25.0234V30.3203H146.501V25.0234H147.79ZM148.048 63.5547V68.875H146.759V63.5547H148.048ZM155.712 55.9375C155.712 54.5781 155.447 53.4219 154.915 52.4688C154.4 51.5156 153.509 50.6562 152.243 49.8906C150.978 49.125 149.236 48.3438 147.017 47.5469C145.048 46.875 143.345 46.1641 141.908 45.4141C140.486 44.6641 139.384 43.7109 138.603 42.5547C137.837 41.3828 137.454 39.8594 137.454 37.9844C137.454 36.25 137.845 34.7422 138.626 33.4609C139.423 32.1641 140.54 31.1641 141.978 30.4609C143.431 29.7422 145.134 29.3828 147.087 29.3828C149.103 29.3828 150.837 29.7734 152.29 30.5547C153.743 31.3359 154.853 32.4766 155.618 33.9766C156.4 35.4609 156.79 37.2891 156.79 39.4609H155.525C155.525 36.9453 154.806 34.8438 153.368 33.1562C151.931 31.4688 149.837 30.625 147.087 30.625C145.181 30.625 143.603 30.9766 142.353 31.6797C141.118 32.3828 140.204 33.2969 139.611 34.4219C139.017 35.5312 138.72 36.7031 138.72 37.9375C138.72 39.2188 138.939 40.3359 139.376 41.2891C139.814 42.2422 140.658 43.1172 141.908 43.9141C143.158 44.7109 144.993 45.5156 147.415 46.3281C149.337 46.9844 151.009 47.6953 152.431 48.4609C153.868 49.2109 154.986 50.1719 155.783 51.3438C156.579 52.5 156.978 54.0156 156.978 55.8906C156.978 57.6562 156.572 59.1875 155.759 60.4844C154.947 61.7656 153.806 62.7578 152.337 63.4609C150.884 64.1484 149.189 64.4922 147.251 64.4922C145.923 64.4922 144.611 64.3203 143.314 63.9766C142.017 63.6328 140.845 63.0703 139.798 62.2891C138.751 61.5078 137.915 60.4766 137.29 59.1953C136.665 57.8984 136.353 56.3047 136.353 54.4141H137.618C137.618 56.1016 137.908 57.5156 138.486 58.6562C139.064 59.7969 139.822 60.7031 140.759 61.375C141.712 62.0469 142.751 62.5312 143.876 62.8281C145.017 63.1094 146.142 63.25 147.251 63.25C149.033 63.25 150.548 62.9062 151.798 62.2188C153.064 61.5156 154.033 60.6094 154.704 59.5C155.376 58.375 155.712 57.1875 155.712 55.9375Z" fill="white"/>
<defs>
<filter id="filter0_f_19_8" x="0.4" y="0.4" width="213.2" height="89.2" filterUnits="userSpaceOnUse" color-interpolation-filters="sRGB">
<feFlood flood-opacity="0" result="BackgroundImageFix"/>
<feBlend mode="normal" in="SourceGraphic" in2="BackgroundImageFix" result="shape"/>
<feGaussianBlur stdDeviation="3.3" result="effect1_foregroundBlur_19_8"/>
</filter>
<filter id="filter1_f_19_8" x="47.722" y="18.5437" width="117.22" height="56.1313" filterUnits="userSpaceOnUse" color-interpolation-filters="sRGB">
<feFlood flood-opacity="0" result="BackgroundImageFix"/>
<feBlend mode="normal" in="SourceGraphic" in2="BackgroundImageFix" result="shape"/>
<feGaussianBlur stdDeviation="2.9" result="effect1_foregroundBlur_19_8"/>
</filter>
</defs>
</svg>
