<svg width="214" height="90" viewBox="0 0 214 90" fill="none" xmlns="http://www.w3.org/2000/svg">
<rect x="7" y="7" width="200" height="76" rx="6" fill="#161618"/>
<g filter="url(#filter0_f_19_7)">
<rect x="8.5" y="8.5" width="197" height="73" rx="4.5" stroke="#6D30E9" stroke-width="3"/>
</g>
<rect x="9.5" y="9.5" width="197" height="73" rx="5.5" stroke="white"/>
<g filter="url(#filter1_f_19_7)">
<path d="M76.1706 28.875V31.3125L62.0378 63H57.4675L71.5769 32.4375H53.1081V28.875H76.1706ZM103.018 43.2188V48.4219C103.018 52.1406 102.58 55.1016 101.705 57.3047C100.83 59.5078 99.5881 61.0859 97.9787 62.0391C96.3694 62.9922 94.4631 63.4688 92.26 63.4688C90.0881 63.4688 88.1897 62.9922 86.5647 62.0391C84.9397 61.0859 83.6819 59.5078 82.7912 57.3047C81.9006 55.1016 81.4553 52.1406 81.4553 48.4219V43.2188C81.4553 39.5 81.8928 36.5625 82.7678 34.4062C83.6584 32.25 84.9084 30.7109 86.5178 29.7891C88.1428 28.8672 90.0412 28.4062 92.2131 28.4062C94.4162 28.4062 96.3225 28.8672 97.9319 29.7891C99.5569 30.7109 100.807 32.25 101.682 34.4062C102.572 36.5625 103.018 39.5 103.018 43.2188ZM98.6584 49.125V42.4922C98.6584 39.9297 98.4162 37.875 97.9319 36.3281C97.4475 34.7812 96.7209 33.6641 95.7522 32.9766C94.7991 32.2891 93.6194 31.9453 92.2131 31.9453C90.8381 31.9453 89.6741 32.2891 88.7209 32.9766C87.7678 33.6641 87.0412 34.7812 86.5412 36.3281C86.0569 37.875 85.8147 39.9297 85.8147 42.4922V49.125C85.8147 51.6719 86.0647 53.7422 86.5647 55.3359C87.0647 56.9141 87.7912 58.0703 88.7444 58.8047C89.7131 59.5391 90.885 59.9062 92.26 59.9062C93.6819 59.9062 94.8616 59.5391 95.7991 58.8047C96.7522 58.0703 97.4631 56.9141 97.9319 55.3359C98.4162 53.7422 98.6584 51.6719 98.6584 49.125ZM130.498 43.2188V48.4219C130.498 52.1406 130.06 55.1016 129.185 57.3047C128.31 59.5078 127.068 61.0859 125.459 62.0391C123.849 62.9922 121.943 63.4688 119.74 63.4688C117.568 63.4688 115.67 62.9922 114.045 62.0391C112.42 61.0859 111.162 59.5078 110.271 57.3047C109.381 55.1016 108.935 52.1406 108.935 48.4219V43.2188C108.935 39.5 109.373 36.5625 110.248 34.4062C111.138 32.25 112.388 30.7109 113.998 29.7891C115.623 28.8672 117.521 28.4062 119.693 28.4062C121.896 28.4062 123.802 28.8672 125.412 29.7891C127.037 30.7109 128.287 32.25 129.162 34.4062C130.052 36.5625 130.498 39.5 130.498 43.2188ZM126.138 49.125V42.4922C126.138 39.9297 125.896 37.875 125.412 36.3281C124.927 34.7812 124.201 33.6641 123.232 32.9766C122.279 32.2891 121.099 31.9453 119.693 31.9453C118.318 31.9453 117.154 32.2891 116.201 32.9766C115.248 33.6641 114.521 34.7812 114.021 36.3281C113.537 37.875 113.295 39.9297 113.295 42.4922V49.125C113.295 51.6719 113.545 53.7422 114.045 55.3359C114.545 56.9141 115.271 58.0703 116.224 58.8047C117.193 59.5391 118.365 59.9062 119.74 59.9062C121.162 59.9062 122.342 59.5391 123.279 58.8047C124.232 58.0703 124.943 56.9141 125.412 55.3359C125.896 53.7422 126.138 51.6719 126.138 49.125ZM149.517 23.3438V30.4922H146.001V23.3438H149.517ZM149.095 61.6172V67.875H145.603V61.6172H149.095ZM153.783 54.2109C153.783 53.2734 153.572 52.4297 153.15 51.6797C152.728 50.9297 152.033 50.2422 151.064 49.6172C150.095 48.9922 148.798 48.4141 147.173 47.8828C145.204 47.2734 143.501 46.5312 142.064 45.6562C140.642 44.7812 139.54 43.6953 138.759 42.3984C137.993 41.1016 137.611 39.5312 137.611 37.6875C137.611 35.7656 138.025 34.1094 138.853 32.7188C139.681 31.3281 140.853 30.2578 142.368 29.5078C143.884 28.7578 145.665 28.3828 147.712 28.3828C149.837 28.3828 151.65 28.8047 153.15 29.6484C154.665 30.4922 155.822 31.7344 156.618 33.375C157.431 35 157.837 37 157.837 39.375H153.525C153.525 37.2812 153.025 35.5625 152.025 34.2188C151.025 32.8594 149.587 32.1797 147.712 32.1797C146.4 32.1797 145.314 32.4062 144.454 32.8594C143.611 33.3125 142.986 33.9531 142.579 34.7812C142.173 35.5938 141.97 36.5391 141.97 37.6172C141.97 38.6172 142.173 39.4922 142.579 40.2422C142.986 40.9922 143.673 41.6719 144.642 42.2812C145.626 42.875 146.978 43.4609 148.697 44.0391C150.712 44.6797 152.423 45.4375 153.829 46.3125C155.236 47.1719 156.306 48.2344 157.04 49.5C157.775 50.75 158.142 52.3047 158.142 54.1641C158.142 56.1797 157.689 57.8828 156.783 59.2734C155.876 60.6484 154.603 61.6953 152.962 62.4141C151.322 63.1328 149.4 63.4922 147.197 63.4922C145.868 63.4922 144.556 63.3125 143.259 62.9531C141.962 62.5938 140.79 62.0078 139.743 61.1953C138.697 60.3672 137.861 59.2812 137.236 57.9375C136.611 56.5781 136.298 54.9141 136.298 52.9453H140.658C140.658 54.2734 140.845 55.375 141.22 56.25C141.611 57.1094 142.126 57.7969 142.767 58.3125C143.408 58.8125 144.111 59.1719 144.876 59.3906C145.658 59.5938 146.431 59.6953 147.197 59.6953C148.603 59.6953 149.79 59.4766 150.759 59.0391C151.743 58.5859 152.493 57.9453 153.009 57.1172C153.525 56.2891 153.783 55.3203 153.783 54.2109Z" fill="#6D30E9"/>
</g>
<path d="M76.7878 28.875V29.6719L61.7644 63H60.4753L75.3347 30.1406H54.9909V28.875H76.7878ZM103.307 42.7969V49.0781C103.307 52.0469 102.916 54.6094 102.135 56.7656C101.369 58.9062 100.229 60.5625 98.7131 61.7344C97.1975 62.8906 95.3381 63.4688 93.135 63.4688C90.9631 63.4688 89.1116 62.8906 87.5803 61.7344C86.0491 60.5625 84.885 58.9062 84.0881 56.7656C83.2912 54.6094 82.8928 52.0469 82.8928 49.0781V42.7969C82.8928 39.8281 83.2834 37.2656 84.0647 35.1094C84.8616 32.9531 86.0178 31.2969 87.5334 30.1406C89.0491 28.9688 90.9006 28.3828 93.0881 28.3828C95.2912 28.3828 97.1506 28.9688 98.6662 30.1406C100.182 31.2969 101.33 32.9531 102.112 35.1094C102.908 37.2656 103.307 39.8281 103.307 42.7969ZM102.041 49.0312V42.7969C102.041 40.1875 101.713 37.8984 101.057 35.9297C100.401 33.9453 99.4084 32.4062 98.0803 31.3125C96.7678 30.2031 95.1037 29.6484 93.0881 29.6484C91.0881 29.6484 89.4241 30.2031 88.0959 31.3125C86.7678 32.4062 85.7756 33.9453 85.1194 35.9297C84.4787 37.8984 84.1584 40.1875 84.1584 42.7969V49.0312C84.1584 51.5938 84.4866 53.8672 85.1428 55.8516C85.7991 57.8359 86.7912 59.3906 88.1194 60.5156C89.4631 61.6406 91.135 62.2031 93.135 62.2031C95.1506 62.2031 96.8147 61.6406 98.1272 60.5156C99.4397 59.3906 100.416 57.8359 101.057 55.8516C101.713 53.8672 102.041 51.5938 102.041 49.0312ZM130.084 42.7969V49.0781C130.084 52.0469 129.693 54.6094 128.912 56.7656C128.146 58.9062 127.006 60.5625 125.49 61.7344C123.974 62.8906 122.115 63.4688 119.912 63.4688C117.74 63.4688 115.888 62.8906 114.357 61.7344C112.826 60.5625 111.662 58.9062 110.865 56.7656C110.068 54.6094 109.67 52.0469 109.67 49.0781V42.7969C109.67 39.8281 110.06 37.2656 110.842 35.1094C111.638 32.9531 112.795 31.2969 114.31 30.1406C115.826 28.9688 117.677 28.3828 119.865 28.3828C122.068 28.3828 123.927 28.9688 125.443 30.1406C126.959 31.2969 128.107 32.9531 128.888 35.1094C129.685 37.2656 130.084 39.8281 130.084 42.7969ZM128.818 49.0312V42.7969C128.818 40.1875 128.49 37.8984 127.834 35.9297C127.177 33.9453 126.185 32.4062 124.857 31.3125C123.545 30.2031 121.881 29.6484 119.865 29.6484C117.865 29.6484 116.201 30.2031 114.873 31.3125C113.545 32.4062 112.552 33.9453 111.896 35.9297C111.256 37.8984 110.935 40.1875 110.935 42.7969V49.0312C110.935 51.5938 111.263 53.8672 111.92 55.8516C112.576 57.8359 113.568 59.3906 114.896 60.5156C116.24 61.6406 117.912 62.2031 119.912 62.2031C121.927 62.2031 123.592 61.6406 124.904 60.5156C126.217 59.3906 127.193 57.8359 127.834 55.8516C128.49 53.8672 128.818 51.5938 128.818 49.0312ZM147.79 24.0234V29.3203H146.501V24.0234H147.79ZM148.048 62.5547V67.875H146.759V62.5547H148.048ZM155.712 54.9375C155.712 53.5781 155.447 52.4219 154.915 51.4688C154.4 50.5156 153.509 49.6562 152.243 48.8906C150.978 48.125 149.236 47.3438 147.017 46.5469C145.048 45.875 143.345 45.1641 141.908 44.4141C140.486 43.6641 139.384 42.7109 138.603 41.5547C137.837 40.3828 137.454 38.8594 137.454 36.9844C137.454 35.25 137.845 33.7422 138.626 32.4609C139.423 31.1641 140.54 30.1641 141.978 29.4609C143.431 28.7422 145.134 28.3828 147.087 28.3828C149.103 28.3828 150.837 28.7734 152.29 29.5547C153.743 30.3359 154.853 31.4766 155.618 32.9766C156.4 34.4609 156.79 36.2891 156.79 38.4609H155.525C155.525 35.9453 154.806 33.8438 153.368 32.1562C151.931 30.4688 149.837 29.625 147.087 29.625C145.181 29.625 143.603 29.9766 142.353 30.6797C141.118 31.3828 140.204 32.2969 139.611 33.4219C139.017 34.5312 138.72 35.7031 138.72 36.9375C138.72 38.2188 138.939 39.3359 139.376 40.2891C139.814 41.2422 140.658 42.1172 141.908 42.9141C143.158 43.7109 144.993 44.5156 147.415 45.3281C149.337 45.9844 151.009 46.6953 152.431 47.4609C153.868 48.2109 154.986 49.1719 155.783 50.3438C156.579 51.5 156.978 53.0156 156.978 54.8906C156.978 56.6562 156.572 58.1875 155.759 59.4844C154.947 60.7656 153.806 61.7578 152.337 62.4609C150.884 63.1484 149.189 63.4922 147.251 63.4922C145.923 63.4922 144.611 63.3203 143.314 62.9766C142.017 62.6328 140.845 62.0703 139.798 61.2891C138.751 60.5078 137.915 59.4766 137.29 58.1953C136.665 56.8984 136.353 55.3047 136.353 53.4141H137.618C137.618 55.1016 137.908 56.5156 138.486 57.6562C139.064 58.7969 139.822 59.7031 140.759 60.375C141.712 61.0469 142.751 61.5312 143.876 61.8281C145.017 62.1094 146.142 62.25 147.251 62.25C149.033 62.25 150.548 61.9062 151.798 61.2188C153.064 60.5156 154.033 59.6094 154.704 58.5C155.376 57.375 155.712 56.1875 155.712 54.9375Z" fill="white"/>
<defs>
<filter id="filter0_f_19_7" x="0.4" y="0.4" width="213.2" height="89.2" filterUnits="userSpaceOnUse" color-interpolation-filters="sRGB">
<feFlood flood-opacity="0" result="BackgroundImageFix"/>
<feBlend mode="normal" in="SourceGraphic" in2="BackgroundImageFix" result="shape"/>
<feGaussianBlur stdDeviation="3.3" result="effect1_foregroundBlur_19_7"/>
</filter>
<filter id="filter1_f_19_7" x="47.3079" y="17.5437" width="116.634" height="56.1313" filterUnits="userSpaceOnUse" color-interpolation-filters="sRGB">
<feFlood flood-opacity="0" result="BackgroundImageFix"/>
<feBlend mode="normal" in="SourceGraphic" in2="BackgroundImageFix" result="shape"/>
<feGaussianBlur stdDeviation="2.9" result="effect1_foregroundBlur_19_7"/>
</filter>
</defs>
</svg>
