<svg width="165" height="150" viewBox="0 0 165 150" fill="none" xmlns="http://www.w3.org/2000/svg">
<rect width="165" height="150" fill="url(#paint0_linear_28_1218)" fill-opacity="0.15"/>
<path d="M108.572 58.8097L108.929 65.154V88.4166L25.6073 129.302L24.5345 70.7934C24.5345 70.7934 24.2787 61.6359 25.6073 55.99C26.4055 52.5979 28.4681 47.5309 28.4681 47.5309C28.4681 47.5309 29.7872 43.432 31.329 41.1865C32.9893 38.7683 36.693 35.8996 36.693 35.8996L35.9778 32.375C35.9778 32.375 35.6421 28.6996 35.9778 26.3831L35.9838 26.3416C36.1622 25.1108 36.2662 24.3933 36.693 23.2109C37.3434 21.4094 39.1963 18.9814 39.1963 18.9814L40.6267 17.5715C40.6267 17.5715 42.1715 17.9421 43.1299 18.2765C44.1326 18.6262 45.6332 19.3338 45.6332 19.3338C45.6332 19.3338 47.7883 21.1021 48.8516 22.506C49.8983 23.8881 50.9972 26.3831 50.9972 26.3831L56.3613 24.2683L62.083 23.5634C62.083 23.5634 65.1296 23.2415 67.0894 23.2109C69.6068 23.1717 73.5263 23.5634 73.5263 23.5634L76.7448 24.2683L79.248 24.9733L82.1088 26.3831C82.1088 26.3831 83.4775 24.1125 84.6121 22.8585C85.7313 21.6214 87.8305 20.0388 87.8305 20.0388L89.9761 18.2765L91.4066 17.924C91.4066 17.924 92.5322 17.7064 93.1946 17.924C93.857 18.1416 94.625 18.9814 94.625 18.9814L96.413 21.0962L97.1282 25.3257V28.1454V36.2521L98.5587 36.957L101.777 41.1865L104.638 45.7686L107.141 51.7604L108.572 58.8097Z" fill="black"/>
<ellipse cx="11.801" cy="11.9837" rx="11.801" ry="11.9837" transform="matrix(-1 0 0 1 64.5859 41.5387)" fill="#DBB222"/>
<ellipse cx="11.801" cy="11.9837" rx="11.801" ry="11.9837" transform="matrix(-1 0 0 1 93.1948 41.5387)" fill="#DBB222"/>
<path d="M66.6898 71.1718C66.6898 71.1718 71.9844 66.3014 69.7446 65.6556C68.5743 65.3181 66.7478 66.538 66.7478 66.538C66.7478 66.538 64.9783 65.2777 63.8054 65.5672C61.5425 66.1257 66.6898 71.1718 66.6898 71.1718Z" fill="#ED6CA8"/>
<ellipse cx="1.78802" cy="6.6968" rx="1.78802" ry="6.6968" transform="matrix(-1 0 0 1 54.5737 47.1782)" fill="black"/>
<ellipse cx="1.78802" cy="6.6968" rx="1.78802" ry="6.6968" transform="matrix(-1 0 0 1 83.1816 47.1782)" fill="black"/>
<ellipse cx="2.14563" cy="2.11478" rx="2.14563" ry="2.11478" transform="matrix(-1 0 0 1 81.751 49.2931)" fill="white"/>
<ellipse cx="2.14563" cy="2.11478" rx="2.14563" ry="2.11478" transform="matrix(-1 0 0 1 56.7188 49.2931)" fill="white"/>
<path d="M144.729 130.143H20.2758L16.3104 125.067C16.3104 125.067 15.0016 123.003 15.0902 121.606C15.1751 120.268 16.6154 118.376 16.6154 118.376L20.5808 115.146L22.106 113.3L21.4959 106.148C21.4959 106.148 21.4436 104.15 21.801 103.61L22.7161 102.225L24.5462 101.533L30.6469 98.7645L32.4771 97.8416C32.4771 97.8416 33.1093 97.1679 33.3922 96.688C33.9825 95.6869 34.0022 93.9193 34.0022 93.9193L34.9173 90.9199C34.9173 90.9199 35.2424 89.1906 36.1375 88.382C36.7953 87.7877 38.2727 87.2284 38.2727 87.2284L45.5935 86.7669L48.6438 86.5362L49.8639 86.0747L51.9991 83.5368L54.4394 80.9988C54.4394 80.9988 56.175 79.2329 57.7948 78.6916C58.9059 78.3202 60.8451 78.2301 60.8451 78.2301L63.5904 78.4609L68.1659 79.6145H72.4363L80.6722 75.4614C80.6722 75.4614 81.749 75 82.5024 75C83.2558 75 84.3326 75.4614 84.3326 75.4614L90.1282 78.2301L93.7886 79.8452L95.3137 80.0759L97.1439 79.6145L101.109 78.9223C101.109 78.9223 101.931 78.2222 102.635 77.9994C103.623 77.6863 104.348 77.7799 105.38 77.9994C106.304 78.1961 107.515 78.9223 107.515 78.9223L114.226 84.4597L115.141 85.844L116.056 86.3055L121.852 86.9976L125.817 87.6898C125.817 87.6898 127.398 88.2955 128.257 88.8434C128.772 89.172 129.477 89.7663 129.477 89.7663L131.308 95.9959L131.613 97.1495L132.528 97.8416L141.679 102.456C141.679 102.456 142.845 103.191 143.204 103.84C143.483 104.346 143.509 105.225 143.509 105.225L142.899 114.223L147.474 118.376L149.304 120.453C149.304 120.453 149.915 121.412 149.915 122.068C149.915 122.724 149.304 123.683 149.304 123.683L144.729 130.143Z" fill="#6034BB"/>
<path d="M90.1284 130.143L87.6879 130.143L56.8798 79.1531L57.7948 78.6916L59.015 78.4609L90.1284 130.143Z" fill="#4F2B99"/>
<path d="M88.6014 130.143L85.8562 130.143L35.8322 88.8434L36.1372 88.382L36.747 87.9205L88.6014 130.143Z" fill="#4F2B99"/>
<path d="M30.6467 98.5338L27.9014 99.9182L75.1814 129.912H76.4015L30.6467 98.5338Z" fill="#9870EB"/>
<path d="M116.056 86.5363L112.091 82.8447L84.6377 120.914L86.4679 124.144L116.056 86.5363Z" fill="#4F2B99"/>
<path d="M127.342 88.8436L87.9927 126.452L89.8229 129.22L129.782 90.228L128.867 89.3051L127.342 88.8436Z" fill="#6E51AB"/>
<defs>
<linearGradient id="paint0_linear_28_1218" x1="82.5" y1="0" x2="82.5" y2="150" gradientUnits="userSpaceOnUse">
<stop stop-color="#4F2B99"/>
<stop offset="0.0001" stop-color="white" stop-opacity="0"/>
</linearGradient>
</defs>
</svg>
