<svg width="759" height="647" viewBox="0 0 759 647" fill="none" xmlns="http://www.w3.org/2000/svg">
<g filter="url(#filter0_bd_201_3)">
<path d="M8 27C8 15.9543 16.9543 7 28 7H751V638H28C16.9543 638 8 629.046 8 618V27Z" fill="#F3F3F3" fill-opacity="0.07" shape-rendering="crispEdges"/>
<path d="M28 8.5H749.5V636.5H28C17.7827 636.5 9.5 628.217 9.5 618V27C9.5 16.7827 17.7827 8.5 28 8.5Z" stroke="white" stroke-opacity="0.05" stroke-width="3" shape-rendering="crispEdges"/>
</g>
<g filter="url(#filter1_bd_201_3)">
<path d="M8 27C8 15.9543 16.9543 7 28 7H751V638H28C16.9543 638 8 629.046 8 618V27Z" fill="#F3F3F3" fill-opacity="0.07" shape-rendering="crispEdges"/>
<path d="M28 8.5H749.5V636.5H28C17.7827 636.5 9.5 628.217 9.5 618V27C9.5 16.7827 17.7827 8.5 28 8.5Z" stroke="white" stroke-opacity="0.05" stroke-width="3" shape-rendering="crispEdges"/>
</g>
<defs>
<filter id="filter0_bd_201_3" x="-92" y="-93" width="943" height="831" filterUnits="userSpaceOnUse" color-interpolation-filters="sRGB">
<feFlood flood-opacity="0" result="BackgroundImageFix"/>
<feGaussianBlur in="BackgroundImageFix" stdDeviation="50"/>
<feComposite in2="SourceAlpha" operator="in" result="effect1_backgroundBlur_201_3"/>
<feColorMatrix in="SourceAlpha" type="matrix" values="0 0 0 0 0 0 0 0 0 0 0 0 0 0 0 0 0 0 127 0" result="hardAlpha"/>
<feOffset dy="1"/>
<feGaussianBlur stdDeviation="3.85"/>
<feComposite in2="hardAlpha" operator="out"/>
<feColorMatrix type="matrix" values="0 0 0 0 0 0 0 0 0 0 0 0 0 0 0 0 0 0 0.1 0"/>
<feBlend mode="normal" in2="effect1_backgroundBlur_201_3" result="effect2_dropShadow_201_3"/>
<feBlend mode="normal" in="SourceGraphic" in2="effect2_dropShadow_201_3" result="shape"/>
</filter>
<filter id="filter1_bd_201_3" x="-92" y="-93" width="943" height="831" filterUnits="userSpaceOnUse" color-interpolation-filters="sRGB">
<feFlood flood-opacity="0" result="BackgroundImageFix"/>
<feGaussianBlur in="BackgroundImageFix" stdDeviation="50"/>
<feComposite in2="SourceAlpha" operator="in" result="effect1_backgroundBlur_201_3"/>
<feColorMatrix in="SourceAlpha" type="matrix" values="0 0 0 0 0 0 0 0 0 0 0 0 0 0 0 0 0 0 127 0" result="hardAlpha"/>
<feOffset dy="1"/>
<feGaussianBlur stdDeviation="3.85"/>
<feComposite in2="hardAlpha" operator="out"/>
<feColorMatrix type="matrix" values="0 0 0 0 0 0 0 0 0 0 0 0 0 0 0 0 0 0 0.1 0"/>
<feBlend mode="normal" in2="effect1_backgroundBlur_201_3" result="effect2_dropShadow_201_3"/>
<feBlend mode="normal" in="SourceGraphic" in2="effect2_dropShadow_201_3" result="shape"/>
</filter>
</defs>
</svg>
