<svg width="119" height="171" viewBox="0 0 119 171" fill="none" xmlns="http://www.w3.org/2000/svg">
<ellipse cx="78.5" cy="31.5331" rx="16.5" ry="10.511" fill="#DBB222"/>
<ellipse cx="38.5" cy="31.5331" rx="16.5" ry="10.511" fill="#DBB222"/>
<path d="M59.0587 47.0135C59.0587 47.0135 51.6559 42.7416 54.7876 42.1751C56.4239 41.8792 58.9776 42.9492 58.9776 42.9492C58.9776 42.9492 61.4517 41.8437 63.0917 42.0976C66.2557 42.5875 59.0587 47.0135 59.0587 47.0135Z" fill="#ED6CA8"/>
<ellipse cx="78.5" cy="31.8423" rx="2.5" ry="5.87382" fill="black"/>
<ellipse cx="38.5" cy="31.8423" rx="2.5" ry="5.87382" fill="black"/>
<ellipse cx="41" cy="29.6783" rx="3" ry="1.85489" fill="white"/>
<ellipse cx="76" cy="29.6783" rx="3" ry="1.85489" fill="white"/>
<path d="M90 98H118V111C118 118.732 111.732 125 104 125C96.268 125 90 118.732 90 111V98Z" fill="black"/>
<path d="M0 97H28V110C28 117.732 21.732 124 14 124V124C6.26801 124 0 117.732 0 110V97Z" fill="black"/>
<line x1="100.5" y1="113" x2="100.5" y2="124" stroke="#333333"/>
<line x1="108.5" y1="113" x2="108.5" y2="124" stroke="#333333"/>
<line x1="10.5" y1="112" x2="10.5" y2="123" stroke="#333333"/>
<line x1="18.5" y1="112" x2="18.5" y2="123" stroke="#333333"/>
<path d="M100.253 128C100.253 128.533 100.165 129.064 100.165 129.582C100.165 130.477 99.6551 130.913 99.2568 131.7C99.0187 132.171 98.957 132.783 99.0273 133.311C99.1811 134.464 101.077 135.004 101.903 135.508C102.046 135.596 102.098 135.755 102.098 135.913C102.098 136.633 101.36 137.539 101.034 138.144C100.899 138.395 100.615 138.667 100.604 138.964C100.594 139.234 100.604 139.505 100.604 139.775C100.604 140.442 100.695 141.144 100.965 141.752C101.22 142.326 101.426 142.832 101.571 143.47C101.708 144.075 101.791 144.697 101.917 145.306C102.013 145.77 102.288 146.215 102.357 146.663C102.496 147.567 102.016 148.385 101.834 149.25C101.775 149.533 101.715 149.822 101.654 150.099C101.62 150.253 101.377 150.462 101.292 150.558C100.656 151.279 99.9506 151.944 99.3349 152.682C98.6996 153.443 99.2077 153.874 99.4423 154.635C99.7369 155.589 99.5497 156.813 99.5497 157.788C99.5497 159.43 99.5104 161.082 99.6668 162.719C99.7305 163.384 99.8065 163.863 99.9988 164.476C100.081 164.737 100.216 164.947 100.243 165.223C100.33 166.111 100.832 166.813 100.96 167.693C101.097 168.627 101.834 169.412 101.834 170.354" stroke="#828282" stroke-linecap="round"/>
<path d="M109.253 128C109.253 128.533 109.165 129.064 109.165 129.582C109.165 130.477 108.655 130.913 108.257 131.7C108.019 132.171 107.957 132.783 108.027 133.311C108.181 134.464 110.077 135.004 110.903 135.508C111.046 135.596 111.098 135.755 111.098 135.913C111.098 136.633 110.36 137.539 110.034 138.144C109.899 138.395 109.615 138.667 109.604 138.964C109.594 139.234 109.604 139.505 109.604 139.775C109.604 140.442 109.695 141.144 109.965 141.752C110.22 142.326 110.426 142.832 110.571 143.47C110.708 144.075 110.791 144.697 110.917 145.306C111.013 145.77 111.288 146.215 111.357 146.663C111.496 147.567 111.016 148.385 110.834 149.25C110.775 149.533 110.715 149.822 110.654 150.099C110.62 150.253 110.377 150.462 110.292 150.558C109.656 151.279 108.951 151.944 108.335 152.682C107.7 153.443 108.208 153.874 108.442 154.635C108.737 155.589 108.55 156.813 108.55 157.788C108.55 159.43 108.51 161.082 108.667 162.719C108.73 163.384 108.807 163.863 108.999 164.476C109.081 164.737 109.216 164.947 109.243 165.223C109.33 166.111 109.832 166.813 109.96 167.693C110.097 168.627 110.834 169.412 110.834 170.354" stroke="#828282" stroke-linecap="round"/>
<path d="M19.2527 128C19.2527 128.533 19.1648 129.064 19.1648 129.582C19.1648 130.477 18.6551 130.913 18.2568 131.7C18.0187 132.171 17.957 132.783 18.0273 133.311C18.1811 134.464 20.0773 135.004 20.9027 135.508C21.0458 135.596 21.0979 135.755 21.0979 135.913C21.0979 136.633 20.3602 137.539 20.0337 138.144C19.8985 138.395 19.6151 138.667 19.6041 138.964C19.5942 139.234 19.6041 139.505 19.6041 139.775C19.6041 140.442 19.6951 141.144 19.9654 141.752C20.2204 142.326 20.4256 142.832 20.5707 143.47C20.7083 144.075 20.7913 144.697 20.9173 145.306C21.0133 145.77 21.2877 146.215 21.3567 146.663C21.4958 147.567 21.0165 148.385 20.8343 149.25C20.7748 149.533 20.7155 149.822 20.6537 150.099C20.6195 150.253 20.3773 150.462 20.2925 150.558C19.656 151.279 18.9506 151.944 18.3349 152.682C17.6996 153.443 18.2077 153.874 18.4423 154.635C18.7369 155.589 18.5497 156.813 18.5497 157.788C18.5497 159.43 18.5104 161.082 18.6668 162.719C18.7305 163.384 18.8065 163.863 18.9988 164.476C19.0807 164.737 19.216 164.947 19.2429 165.223C19.3296 166.111 19.8318 166.813 19.9605 167.693C20.0972 168.627 20.8343 169.412 20.8343 170.354" stroke="#828282" stroke-linecap="round"/>
<path d="M10.2527 128C10.2527 128.533 10.1648 129.064 10.1648 129.582C10.1648 130.477 9.65507 130.913 9.25678 131.7C9.01867 132.171 8.95696 132.783 9.02734 133.311C9.18106 134.464 11.0773 135.004 11.9027 135.508C12.0458 135.596 12.0979 135.755 12.0979 135.913C12.0979 136.633 11.3602 137.539 11.0337 138.144C10.8985 138.395 10.6151 138.667 10.6041 138.964C10.5942 139.234 10.6041 139.505 10.6041 139.775C10.6041 140.442 10.6951 141.144 10.9654 141.752C11.2204 142.326 11.4256 142.832 11.5707 143.47C11.7083 144.075 11.7913 144.697 11.9173 145.306C12.0133 145.77 12.2877 146.215 12.3567 146.663C12.4958 147.567 12.0165 148.385 11.8343 149.25C11.7748 149.533 11.7155 149.822 11.6537 150.099C11.6195 150.253 11.3773 150.462 11.2925 150.558C10.656 151.279 9.9506 151.944 9.33489 152.682C8.69957 153.443 9.20768 153.874 9.44229 154.635C9.73689 155.589 9.54968 156.813 9.54968 157.788C9.54968 159.43 9.51036 161.082 9.66685 162.719C9.73047 163.384 9.80654 163.863 9.9988 164.476C10.0807 164.737 10.216 164.947 10.2429 165.223C10.3296 166.111 10.8318 166.813 10.9605 167.693C11.0972 168.627 11.8343 169.412 11.8343 170.354" stroke="#828282" stroke-linecap="round"/>
<path d="M0.5 58.5L0 67.5V100.5H118V75.5C118 75.5 118.358 62.5093 116.5 54.5C115.384 49.688 112.5 42.5 112.5 42.5C112.5 42.5 110.656 36.6854 108.5 33.5C106.179 30.0695 101 26 101 26L102 21C102 21 102.469 15.7861 102 12.5L101.992 12.4412C101.742 10.6952 101.597 9.67733 101 8C100.091 5.4443 97.5 2 97.5 2L95.5 0C95.5 0 93.3401 0.525714 92 1C90.5981 1.49615 88.5 2.5 88.5 2.5C88.5 2.5 85.4867 5.00841 84 7C82.5364 8.96061 81 12.5 81 12.5L73.5 9.5L65.5 8.5C65.5 8.5 61.2403 8.04332 58.5 8C54.9803 7.94435 49.5 8.5 49.5 8.5L45 9.5L41.5 10.5L37.5 12.5C37.5 12.5 35.5863 9.27891 34 7.5C32.4351 5.74513 29.5 3.5 29.5 3.5L26.5 1L24.5 0.5C24.5 0.5 22.9262 0.191263 22 0.5C21.0738 0.808737 20 2 20 2L17.5 5L16.5 11V15V26.5L14.5 27.5L10 33.5L6 40L2.5 48.5L0.5 58.5Z" fill="black"/>
<ellipse cx="78.5" cy="51" rx="16.5" ry="17" fill="#DBB222"/>
<ellipse cx="38.5" cy="51" rx="16.5" ry="17" fill="#DBB222"/>
<path d="M59.0587 76.037C59.0587 76.037 51.6559 69.1278 54.7876 68.2117C56.4239 67.7329 58.9776 69.4635 58.9776 69.4635C58.9776 69.4635 61.4517 67.6756 63.0917 68.0863C66.2557 68.8785 59.0587 76.037 59.0587 76.037Z" fill="#ED6CA8"/>
<ellipse cx="78.5" cy="51.5" rx="2.5" ry="9.5" fill="black"/>
<ellipse cx="38.5" cy="51.5" rx="2.5" ry="9.5" fill="black"/>
<circle cx="41" cy="48" r="3" fill="white"/>
<circle cx="76" cy="48" r="3" fill="white"/>
<path d="M90 98H118V111C118 118.732 111.732 125 104 125V125C96.268 125 90 118.732 90 111V98Z" fill="black"/>
<path d="M0 97H28V110C28 117.732 21.732 124 14 124V124C6.26801 124 0 117.732 0 110V97Z" fill="black"/>
<line x1="100.5" y1="113" x2="100.5" y2="124" stroke="#333333"/>
<line x1="108.5" y1="113" x2="108.5" y2="124" stroke="#333333"/>
<line x1="10.5" y1="112" x2="10.5" y2="123" stroke="#333333"/>
<line x1="18.5" y1="112" x2="18.5" y2="123" stroke="#333333"/>
<path d="M100.253 128C100.253 128.533 100.165 129.064 100.165 129.582C100.165 130.477 99.6551 130.913 99.2568 131.7C99.0187 132.171 98.957 132.783 99.0273 133.311C99.1811 134.464 101.077 135.004 101.903 135.508C102.046 135.596 102.098 135.755 102.098 135.913C102.098 136.633 101.36 137.539 101.034 138.144C100.899 138.395 100.615 138.667 100.604 138.964C100.594 139.234 100.604 139.505 100.604 139.775C100.604 140.442 100.695 141.144 100.965 141.752C101.22 142.326 101.426 142.832 101.571 143.47C101.708 144.075 101.791 144.697 101.917 145.306C102.013 145.77 102.288 146.215 102.357 146.663C102.496 147.567 102.016 148.385 101.834 149.25C101.775 149.533 101.715 149.822 101.654 150.099C101.62 150.253 101.377 150.462 101.292 150.558C100.656 151.279 99.9506 151.944 99.3349 152.682C98.6996 153.443 99.2077 153.874 99.4423 154.635C99.7369 155.589 99.5497 156.813 99.5497 157.788C99.5497 159.43 99.5104 161.082 99.6668 162.719C99.7305 163.384 99.8065 163.863 99.9988 164.476C100.081 164.737 100.216 164.947 100.243 165.223C100.33 166.111 100.832 166.813 100.96 167.693C101.097 168.627 101.834 169.412 101.834 170.354" stroke="#828282" stroke-linecap="round"/>
<path d="M109.253 128C109.253 128.533 109.165 129.064 109.165 129.582C109.165 130.477 108.655 130.913 108.257 131.7C108.019 132.171 107.957 132.783 108.027 133.311C108.181 134.464 110.077 135.004 110.903 135.508C111.046 135.596 111.098 135.755 111.098 135.913C111.098 136.633 110.36 137.539 110.034 138.144C109.899 138.395 109.615 138.667 109.604 138.964C109.594 139.234 109.604 139.505 109.604 139.775C109.604 140.442 109.695 141.144 109.965 141.752C110.22 142.326 110.426 142.832 110.571 143.47C110.708 144.075 110.791 144.697 110.917 145.306C111.013 145.77 111.288 146.215 111.357 146.663C111.496 147.567 111.016 148.385 110.834 149.25C110.775 149.533 110.715 149.822 110.654 150.099C110.62 150.253 110.377 150.462 110.292 150.558C109.656 151.279 108.951 151.944 108.335 152.682C107.7 153.443 108.208 153.874 108.442 154.635C108.737 155.589 108.55 156.813 108.55 157.788C108.55 159.43 108.51 161.082 108.667 162.719C108.73 163.384 108.807 163.863 108.999 164.476C109.081 164.737 109.216 164.947 109.243 165.223C109.33 166.111 109.832 166.813 109.96 167.693C110.097 168.627 110.834 169.412 110.834 170.354" stroke="#828282" stroke-linecap="round"/>
<path d="M19.2527 128C19.2527 128.533 19.1648 129.064 19.1648 129.582C19.1648 130.477 18.6551 130.913 18.2568 131.7C18.0187 132.171 17.957 132.783 18.0273 133.311C18.1811 134.464 20.0773 135.004 20.9027 135.508C21.0458 135.596 21.0979 135.755 21.0979 135.913C21.0979 136.633 20.3602 137.539 20.0337 138.144C19.8985 138.395 19.6151 138.667 19.6041 138.964C19.5942 139.234 19.6041 139.505 19.6041 139.775C19.6041 140.442 19.6951 141.144 19.9654 141.752C20.2204 142.326 20.4256 142.832 20.5707 143.47C20.7083 144.075 20.7913 144.697 20.9173 145.306C21.0133 145.77 21.2877 146.215 21.3567 146.663C21.4958 147.567 21.0165 148.385 20.8343 149.25C20.7748 149.533 20.7155 149.822 20.6537 150.099C20.6195 150.253 20.3773 150.462 20.2925 150.558C19.656 151.279 18.9506 151.944 18.3349 152.682C17.6996 153.443 18.2077 153.874 18.4423 154.635C18.7369 155.589 18.5497 156.813 18.5497 157.788C18.5497 159.43 18.5104 161.082 18.6668 162.719C18.7305 163.384 18.8065 163.863 18.9988 164.476C19.0807 164.737 19.216 164.947 19.2429 165.223C19.3296 166.111 19.8318 166.813 19.9605 167.693C20.0972 168.627 20.8343 169.412 20.8343 170.354" stroke="#828282" stroke-linecap="round"/>
<path d="M10.2527 128C10.2527 128.533 10.1648 129.064 10.1648 129.582C10.1648 130.477 9.65507 130.913 9.25678 131.7C9.01867 132.171 8.95696 132.783 9.02734 133.311C9.18106 134.464 11.0773 135.004 11.9027 135.508C12.0458 135.596 12.0979 135.755 12.0979 135.913C12.0979 136.633 11.3602 137.539 11.0337 138.144C10.8985 138.395 10.6151 138.667 10.6041 138.964C10.5942 139.234 10.6041 139.505 10.6041 139.775C10.6041 140.442 10.6951 141.144 10.9654 141.752C11.2204 142.326 11.4256 142.832 11.5707 143.47C11.7083 144.075 11.7913 144.697 11.9173 145.306C12.0133 145.77 12.2877 146.215 12.3567 146.663C12.4958 147.567 12.0165 148.385 11.8343 149.25C11.7748 149.533 11.7155 149.822 11.6537 150.099C11.6195 150.253 11.3773 150.462 11.2925 150.558C10.656 151.279 9.9506 151.944 9.33489 152.682C8.69957 153.443 9.20768 153.874 9.44229 154.635C9.73689 155.589 9.54968 156.813 9.54968 157.788C9.54968 159.43 9.51036 161.082 9.66685 162.719C9.73047 163.384 9.80654 163.863 9.9988 164.476C10.0807 164.737 10.216 164.947 10.2429 165.223C10.3296 166.111 10.8318 166.813 10.9605 167.693C11.0972 168.627 11.8343 169.412 11.8343 170.354" stroke="#828282" stroke-linecap="round"/>
</svg>
