<svg width="324" height="189" viewBox="0 0 324 189" fill="none" xmlns="http://www.w3.org/2000/svg">
<ellipse cx="55.5955" cy="122.512" rx="22.1901" ry="55.2118" transform="rotate(-47.222 55.5955 122.512)" fill="#7248C8"/>
<ellipse cx="84.0004" cy="93.7267" rx="38" ry="77" transform="rotate(-23.0013 84.0004 93.7267)" fill="#6E51AB"/>
<path d="M57.0003 29.7268C57.0003 29.7268 56.146 42.5704 57.0003 50.7268C57.874 59.0684 61.5003 71.7268 61.5003 71.7268C61.5003 71.7268 65.4453 83.7347 68.5003 91.2268C72.919 102.063 75.0189 108.483 81.5003 118.227C85.8071 124.701 88.5038 128.226 94.0003 133.727C98.5065 138.237 106.5 144.227 106.5 144.227" stroke="#9870EB" stroke-width="2"/>
<path d="M189.724 105.579L178.272 156L177 167.25L186.755 181.002L208.387 188.085H230.442L246.56 181.002C246.56 181.002 280.33 150.79 295.76 126.831C300.638 119.257 307.212 106.829 307.212 106.829L313.999 90.161L311.03 88.0775C311.03 88.0775 309.689 86.6973 309.333 85.5773C308.836 84.0164 309.757 81.4103 309.757 81.4103L311.03 78.0767C311.03 78.0767 313.112 76.016 314.847 75.5765C316.619 75.1277 319.513 75.9932 319.513 75.9932L323.754 57.2417C323.754 57.2417 324.528 45.9716 323.33 38.907C322.656 34.936 322.38 32.6145 320.785 28.9062C319.193 25.2039 315.271 20.1555 315.271 20.1555C315.271 20.1555 310.18 16.1865 306.364 14.7384C303.816 13.7714 302.298 13.319 299.578 13.0716C295.239 12.6769 292.807 13.826 288.55 14.7384C281.743 16.1972 277.871 17.2068 271.584 20.1555C263.747 23.8312 260.216 27.4365 253.346 32.6565C236.391 45.5396 214.325 70.5761 214.325 70.5761C214.325 70.5761 206.3 78.2765 202.025 83.9105C196.13 91.6781 189.724 105.579 189.724 105.579Z" fill="#7248C8"/>
<path d="M195.663 180.922C189.032 162.575 212.386 122.788 237.201 88.7295C262.016 54.6708 289.843 11.1666 306.364 15.4918" stroke="#9870EB" stroke-width="2"/>
<path d="M247.832 74.2465L322.906 59.662" stroke="#9870EB" stroke-width="2"/>
<path d="M231.715 96.3316L221.958 62.4832" stroke="#9870EB" stroke-width="2"/>
<ellipse cx="193.181" cy="104.652" rx="38" ry="77" transform="rotate(39.3067 193.181 104.652)" fill="#775BB0"/>
<path d="M237.301 51.0029C237.301 51.0029 225.532 56.2152 218.707 60.762C211.727 65.4121 202.203 74.5057 202.203 74.5057C202.203 74.5057 193.404 83.5791 188.19 89.7659C180.648 98.7144 175.94 103.557 170.324 113.824C166.592 120.647 164.725 124.672 162.408 132.096C160.509 138.181 158.92 148.043 158.92 148.043" stroke="#9870EB" stroke-width="2"/>
<path d="M84.5 58.5L84 67.5V100.5L200.5 158.5L202 75.5C202 75.5 202.358 62.5093 200.5 54.5C199.384 49.688 196.5 42.5 196.5 42.5C196.5 42.5 194.656 36.6854 192.5 33.5C190.179 30.0695 185 26 185 26L186 21C186 21 186.469 15.7861 186 12.5L185.992 12.4412C185.742 10.6952 185.597 9.67733 185 8C184.091 5.4443 181.5 2 181.5 2L179.5 0C179.5 0 177.34 0.525714 176 1C174.598 1.49615 172.5 2.5 172.5 2.5C172.5 2.5 169.487 5.00841 168 7C166.536 8.96061 165 12.5 165 12.5L157.5 9.5L149.5 8.5C149.5 8.5 145.24 8.04332 142.5 8C138.98 7.94435 133.5 8.5 133.5 8.5L129 9.5L125.5 10.5L121.5 12.5C121.5 12.5 119.586 9.27891 118 7.5C116.435 5.74513 113.5 3.5 113.5 3.5L110.5 1L108.5 0.5C108.5 0.5 106.926 0.191263 106 0.5C105.074 0.808737 104 2 104 2L101.5 5L100.5 11V15V26.5L98.5 27.5L94 33.5L90 40L86.5 48.5L84.5 58.5Z" fill="black"/>
<ellipse cx="162.5" cy="51" rx="16.5" ry="17" fill="#DBB222"/>
<ellipse cx="122.5" cy="51" rx="16.5" ry="17" fill="#DBB222"/>
<path d="M143.059 76.0371C143.059 76.0371 135.656 69.1279 138.788 68.2118C140.424 67.7331 142.978 69.4636 142.978 69.4636C142.978 69.4636 145.452 67.6758 147.092 68.0864C150.256 68.8787 143.059 76.0371 143.059 76.0371Z" fill="#ED6CA8"/>
<ellipse cx="162.5" cy="51.5" rx="2.5" ry="9.5" fill="black"/>
<ellipse cx="122.5" cy="51.5" rx="2.5" ry="9.5" fill="black"/>
<circle cx="125" cy="48" r="3" fill="white"/>
<circle cx="160" cy="48" r="3" fill="white"/>
</svg>
