<svg width="118" height="74" viewBox="0 0 118 74" fill="none" xmlns="http://www.w3.org/2000/svg">
<path d="M90 0H118V13C118 20.732 111.732 27 104 27C96.268 27 90 20.732 90 13V0Z" fill="black"/>
<path d="M0 0H28V13C28 20.732 21.732 27 14 27C6.26801 27 0 20.732 0 13V0Z" fill="black"/>
<line x1="100.5" y1="16" x2="100.5" y2="27" stroke="#333333"/>
<line x1="108.5" y1="16" x2="108.5" y2="27" stroke="#333333"/>
<line x1="10.5" y1="15" x2="10.5" y2="26" stroke="#333333"/>
<line x1="18.5" y1="15" x2="18.5" y2="26" stroke="#333333"/>
<path d="M103.253 31C103.253 31.5332 103.165 32.0636 103.165 32.5817C103.165 33.4775 102.655 33.9126 102.257 34.7003C102.019 35.1713 101.957 35.7834 102.027 36.3113C102.181 37.4641 104.077 38.0037 104.903 38.5081C105.046 38.5955 105.098 38.7546 105.098 38.9132C105.098 39.6329 104.36 40.5386 104.034 41.1442C103.899 41.395 103.615 41.667 103.604 41.9643C103.594 42.2337 103.604 42.5052 103.604 42.7747C103.604 43.442 103.695 44.1436 103.965 44.7518C104.22 45.3255 104.426 45.8316 104.571 46.4701C104.708 47.0753 104.791 47.6965 104.917 48.3056C105.013 48.7698 105.288 49.2145 105.357 49.6628C105.496 50.567 105.016 51.3848 104.834 52.2501C104.775 52.5329 104.715 52.8216 104.654 53.0995C104.62 53.2533 104.377 53.4623 104.292 53.5584C103.656 54.2789 102.951 54.9443 102.335 55.6819C101.7 56.443 102.208 56.8745 102.442 57.6346C102.737 58.5891 102.55 59.8126 102.55 60.7882C102.55 62.4301 102.51 64.0818 102.667 65.7187C102.73 66.3842 102.807 66.8633 102.999 67.4761C103.081 67.7372 103.216 67.947 103.243 68.223C103.33 69.1114 103.832 69.8134 103.96 70.6931C104.097 71.627 104.834 72.412 104.834 73.3537" stroke="#828282" stroke-linecap="round"/>
<path d="M109.253 31C109.253 31.5332 109.165 32.0636 109.165 32.5817C109.165 33.4775 108.655 33.9126 108.257 34.7003C108.019 35.1713 107.957 35.7834 108.027 36.3113C108.181 37.4641 110.077 38.0037 110.903 38.5081C111.046 38.5955 111.098 38.7546 111.098 38.9132C111.098 39.6329 110.36 40.5386 110.034 41.1442C109.899 41.395 109.615 41.667 109.604 41.9643C109.594 42.2337 109.604 42.5052 109.604 42.7747C109.604 43.442 109.695 44.1436 109.965 44.7518C110.22 45.3255 110.426 45.8316 110.571 46.4701C110.708 47.0753 110.791 47.6965 110.917 48.3056C111.013 48.7698 111.288 49.2145 111.357 49.6628C111.496 50.567 111.016 51.3848 110.834 52.2501C110.775 52.5329 110.715 52.8216 110.654 53.0995C110.62 53.2533 110.377 53.4623 110.292 53.5584C109.656 54.2789 108.951 54.9443 108.335 55.6819C107.7 56.443 108.208 56.8745 108.442 57.6346C108.737 58.5891 108.55 59.8126 108.55 60.7882C108.55 62.4301 108.51 64.0818 108.667 65.7187C108.73 66.3842 108.807 66.8633 108.999 67.4761C109.081 67.7372 109.216 67.947 109.243 68.223C109.33 69.1114 109.832 69.8134 109.96 70.6931C110.097 71.627 110.834 72.412 110.834 73.3537" stroke="#828282" stroke-linecap="round"/>
<path d="M13.2527 31C13.2527 31.5332 13.1648 32.0636 13.1648 32.5817C13.1648 33.4775 12.6551 33.9126 12.2568 34.7003C12.0187 35.1713 11.957 35.7834 12.0273 36.3113C12.1811 37.4641 14.0773 38.0037 14.9027 38.5081C15.0458 38.5955 15.0979 38.7546 15.0979 38.9132C15.0979 39.6329 14.3602 40.5386 14.0337 41.1442C13.8985 41.395 13.6151 41.667 13.6041 41.9643C13.5942 42.2337 13.6041 42.5052 13.6041 42.7747C13.6041 43.442 13.6951 44.1436 13.9654 44.7518C14.2204 45.3255 14.4256 45.8316 14.5707 46.4701C14.7083 47.0753 14.7913 47.6965 14.9173 48.3056C15.0133 48.7698 15.2877 49.2145 15.3567 49.6628C15.4958 50.567 15.0165 51.3848 14.8343 52.2501C14.7748 52.5329 14.7155 52.8216 14.6537 53.0995C14.6195 53.2533 14.3773 53.4623 14.2925 53.5584C13.656 54.2789 12.9506 54.9443 12.3349 55.6819C11.6996 56.443 12.2077 56.8745 12.4423 57.6346C12.7369 58.5891 12.5497 59.8126 12.5497 60.7882C12.5497 62.4301 12.5104 64.0818 12.6668 65.7187C12.7305 66.3842 12.8065 66.8633 12.9988 67.4761C13.0807 67.7372 13.216 67.947 13.2429 68.223C13.3296 69.1114 13.8318 69.8134 13.9605 70.6931C14.0972 71.627 14.8343 72.412 14.8343 73.3537" stroke="#828282" stroke-linecap="round"/>
<path d="M10.2527 31C10.2527 31.5332 10.1648 32.0636 10.1648 32.5817C10.1648 33.4775 9.65507 33.9126 9.25678 34.7003C9.01867 35.1713 8.95696 35.7834 9.02734 36.3113C9.18106 37.4641 11.0773 38.0037 11.9027 38.5081C12.0458 38.5955 12.0979 38.7546 12.0979 38.9132C12.0979 39.6329 11.3602 40.5386 11.0337 41.1442C10.8985 41.395 10.6151 41.667 10.6041 41.9643C10.5942 42.2337 10.6041 42.5052 10.6041 42.7747C10.6041 43.442 10.6951 44.1436 10.9654 44.7518C11.2204 45.3255 11.4256 45.8316 11.5707 46.4701C11.7083 47.0753 11.7913 47.6965 11.9173 48.3056C12.0133 48.7698 12.2877 49.2145 12.3567 49.6628C12.4958 50.567 12.0165 51.3848 11.8343 52.2501C11.7748 52.5329 11.7155 52.8216 11.6537 53.0995C11.6195 53.2533 11.3773 53.4623 11.2925 53.5584C10.656 54.2789 9.9506 54.9443 9.33489 55.6819C8.69957 56.443 9.20768 56.8745 9.44229 57.6346C9.73689 58.5891 9.54968 59.8126 9.54968 60.7882C9.54968 62.4301 9.51036 64.0818 9.66685 65.7187C9.73047 66.3842 9.80654 66.8633 9.9988 67.4761C10.0807 67.7372 10.216 67.947 10.2429 68.223C10.3296 69.1114 10.8318 69.8134 10.9605 70.6931C11.0972 71.627 11.8343 72.412 11.8343 73.3537" stroke="#828282" stroke-linecap="round"/>
</svg>
