<svg width="312" height="87" viewBox="0 0 312 87" fill="none" xmlns="http://www.w3.org/2000/svg">
<path d="M51.6417 84.4275C43.1417 79.1379 43.4707 80.0273 35.9707 75.8039C28.4697 71.5806 21.4397 68.9413 15.5897 68.1518C9.73968 67.3622 5.27768 68.4522 2.65368 71.3099C0.0286789 74.1676 -0.664316 78.6923 0.643684 84.4275H15.5907H36.6417H51.6417Z" fill="#7248C8"/>
<path d="M113.141 86.549C109.823 75.3484 104.53 59.4502 98.6757 49.3178C92.8217 39.1844 86.0547 30.3168 78.9207 23.4265C71.7877 16.5372 64.4857 11.8178 57.6037 9.64981C50.7227 7.48282 44.4527 7.9265 39.3007 10.9453C34.1477 13.965 30.2567 19.4759 27.9397 27.0352C25.6227 34.5935 24.9457 43.9887 25.9617 54.464C26.9777 64.9393 26.6407 59.8692 28.1417 71.7269C28.1417 71.7269 26.4347 75.1548 32.7937 84.5727H71.1407L113.141 86.549Z" fill="#6E51AB"/>
<path d="M298.141 84.0786H231.141H210.641C210.641 84.0786 209.051 66.7911 212.141 56.4106C215.477 45.2041 227.641 30.7189 227.641 30.7189L233.641 25.2841L241.141 18.8612C241.141 18.8612 245.797 14.6517 249.141 12.4383C251.395 10.9462 255.141 8.9798 255.141 8.9798L262.641 5.5213L270.141 3.05094L277.641 1.56873C277.641 1.56873 280.619 0.34047 282.641 0.0865174C284.191 -0.108147 286.641 0.0865174 286.641 0.0865174L291.141 0.580588L296.141 2.55687C296.141 2.55687 301.005 4.58256 303.141 7.00351C304.352 8.37505 305.641 10.9561 305.641 10.9561L308.641 15.8968L310.141 20.3434L311.141 26.2723L311.641 33.1893V44.0588C311.641 48.3039 307.141 62.3395 307.141 62.3395L304.641 61.8454H303.141L301.141 62.3395L298.641 64.3158L297.641 66.7861L296.641 69.7505L297.141 72.2209L298.641 74.1972L301.641 76.6675L298.141 84.0786Z" fill="#7248C8"/>
<path d="M49.4886 17.0677C49.4886 17.0677 48.6336 29.7594 49.4886 37.8187C50.3616 46.0618 53.9886 58.5697 53.9886 58.5697C53.9886 58.5697 59.4326 76.6339 62.4876 84.0371" stroke="#9870EB" stroke-width="2"/>
<path d="M221.8 79.0539C246.615 45.3988 274.442 2.41062 290.964 6.68434" stroke="#9870EB" stroke-width="2"/>
<path d="M232.431 64.7426L307.505 50.3306" stroke="#9870EB" stroke-width="2"/>
<path d="M230.142 84.5728C237.652 67.8613 239.746 50.886 235.788 40.5421C231.831 30.1993 222.244 25.5589 209.138 27.6429C196.032 29.7259 180.479 38.3633 165.902 51.6528C151.324 64.9423 146.152 67.8613 138.642 84.5728H160.144H182.143H230.142Z" fill="#775BB0"/>
<path d="M218.67 39.1389C218.67 39.1389 206.901 44.2891 200.076 48.7822C193.095 53.3771 183.572 62.3632 183.572 62.3632C183.572 62.3632 170.823 77.6537 165.609 83.7674" stroke="#9870EB" stroke-width="2"/>
</svg>
