<svg width="324" height="181" viewBox="0 0 324 181" fill="none" xmlns="http://www.w3.org/2000/svg">
    <ellipse cx="55.5955" cy="114.512" rx="22.1901" ry="55.2118" transform="rotate(-47.222 55.5955 114.512)" fill="#7248C8"/>
    <ellipse cx="84.0004" cy="85.7268" rx="38" ry="77" transform="rotate(-23.0013 84.0004 85.7268)" fill="#6E51AB"/>
    <path d="M57.0003 21.7268C57.0003 21.7268 56.146 34.5704 57.0003 42.7268C57.874 51.0684 61.5003 63.7268 61.5003 63.7268C61.5003 63.7268 65.4453 75.7347 68.5003 83.2268C72.919 94.0632 75.0189 100.483 81.5003 110.227C85.8071 116.701 88.5038 120.226 94.0003 125.727C98.5065 130.237 106.5 136.227 106.5 136.227" stroke="#9870EB" stroke-width="2"/>
    <path d="M189.724 97.5788L178.272 147.999L177 159.25L186.755 173.001L208.387 180.085H230.442L246.56 173.001C246.56 173.001 280.33 142.79 295.76 118.831C300.638 111.257 307.212 98.8289 307.212 98.8289L313.999 82.1609L311.03 80.0774C311.03 80.0774 309.689 78.6973 309.333 77.5772C308.836 76.0163 309.757 73.4102 309.757 73.4102L311.03 70.0767C311.03 70.0767 313.112 68.016 314.847 67.5765C316.619 67.1276 319.513 67.9932 319.513 67.9932L323.754 49.2417C323.754 49.2417 324.528 37.9715 323.33 30.9069C322.656 26.9359 322.38 24.6144 320.785 20.9061C319.193 17.2038 315.271 12.1554 315.271 12.1554C315.271 12.1554 310.18 8.18644 306.364 6.73832C303.816 5.77132 302.298 5.31897 299.578 5.07152C295.239 4.67684 292.807 5.82592 288.55 6.73832C281.743 8.19712 277.871 9.20675 271.584 12.1554C263.747 15.8312 260.216 19.4364 253.346 24.6564C236.391 37.5395 214.325 62.5761 214.325 62.5761C214.325 62.5761 206.3 70.2765 202.025 75.9104C196.13 83.678 189.724 97.5788 189.724 97.5788Z" fill="#7248C8"/>
    <path d="M195.663 172.922C189.032 154.575 212.386 114.788 237.201 80.7295C262.016 46.6708 289.843 3.16657 306.364 7.49181" stroke="#9870EB" stroke-width="2"/>
    <path d="M247.832 66.2465L322.906 51.662" stroke="#9870EB" stroke-width="2"/>
    <path d="M231.715 88.3315L221.958 54.4831" stroke="#9870EB" stroke-width="2"/>
    <ellipse cx="193.181" cy="96.6519" rx="38" ry="77" transform="rotate(39.3067 193.181 96.6519)" fill="#775BB0"/>
    <path d="M237.301 43.0029C237.301 43.0029 225.532 48.2152 218.707 52.762C211.727 57.4121 202.203 66.5057 202.203 66.5057C202.203 66.5057 193.404 75.5791 188.19 81.7659C180.648 90.7144 175.94 95.557 170.324 105.824C166.592 112.647 164.725 116.672 162.408 124.096C160.509 130.181 158.92 140.043 158.92 140.043" stroke="#9870EB" stroke-width="2"/>
    <ellipse cx="55.5955" cy="114.512" rx="22.1901" ry="55.2118" transform="rotate(-47.222 55.5955 114.512)" fill="#7248C8"/>
    <ellipse cx="84.0004" cy="85.7268" rx="38" ry="77" transform="rotate(-23.0013 84.0004 85.7268)" fill="#6E51AB"/>
    <path d="M57.0003 21.7268C57.0003 21.7268 56.146 34.5704 57.0003 42.7268C57.874 51.0684 61.5003 63.7268 61.5003 63.7268C61.5003 63.7268 65.4453 75.7347 68.5003 83.2268C72.919 94.0632 75.0189 100.483 81.5003 110.227C85.8071 116.701 88.5038 120.226 94.0003 125.727C98.5065 130.237 106.5 136.227 106.5 136.227" stroke="#9870EB" stroke-width="2"/>
    <path d="M189.724 97.5788L178.272 147.999L177 159.25L186.755 173.001L208.387 180.085H230.442L246.56 173.001C246.56 173.001 280.33 142.79 295.76 118.831C300.638 111.257 307.212 98.8289 307.212 98.8289L313.999 82.1609L311.03 80.0774C311.03 80.0774 309.689 78.6973 309.333 77.5772C308.836 76.0163 309.757 73.4102 309.757 73.4102L311.03 70.0767C311.03 70.0767 313.112 68.016 314.847 67.5765C316.619 67.1276 319.513 67.9932 319.513 67.9932L323.754 49.2417C323.754 49.2417 324.528 37.9715 323.33 30.9069C322.656 26.9359 322.38 24.6144 320.785 20.9061C319.193 17.2038 315.271 12.1554 315.271 12.1554C315.271 12.1554 310.18 8.18644 306.364 6.73832C303.816 5.77132 302.298 5.31897 299.578 5.07152C295.239 4.67684 292.807 5.82592 288.55 6.73832C281.743 8.19712 277.871 9.20675 271.584 12.1554C263.747 15.8312 260.216 19.4364 253.346 24.6564C236.391 37.5395 214.325 62.5761 214.325 62.5761C214.325 62.5761 206.3 70.2765 202.025 75.9104C196.13 83.678 189.724 97.5788 189.724 97.5788Z" fill="#7248C8"/>
    <path d="M195.663 172.922C189.032 154.575 212.386 114.788 237.201 80.7295C262.016 46.6708 289.843 3.16657 306.364 7.49181" stroke="#9870EB" stroke-width="2"/>
    <path d="M247.832 66.2465L322.906 51.662" stroke="#9870EB" stroke-width="2"/>
    <path d="M231.715 88.3315L221.958 54.4831" stroke="#9870EB" stroke-width="2"/>
    <ellipse cx="193.181" cy="96.6519" rx="38" ry="77" transform="rotate(39.3067 193.181 96.6519)" fill="#775BB0"/>
    <path d="M237.301 43.0029C237.301 43.0029 225.532 48.2152 218.707 52.762C211.727 57.4121 202.203 66.5057 202.203 66.5057C202.203 66.5057 193.404 75.5791 188.19 81.7659C180.648 90.7144 175.94 95.557 170.324 105.824C166.592 112.647 164.725 116.672 162.408 124.096C160.509 130.181 158.92 140.043 158.92 140.043" stroke="#9870EB" stroke-width="2"/>
</svg>
