<svg width="115" height="101" viewBox="0 0 115 101" fill="none" xmlns="http://www.w3.org/2000/svg">
    <path d="M0.483962 58.574L0 67.5854V100.627H114.215V75.5955C114.215 75.5955 114.561 62.5883 112.763 54.5689C111.683 49.7508 108.892 42.5537 108.892 42.5537C108.892 42.5537 107.106 36.7318 105.02 33.5424C102.773 30.1076 97.7604 26.0329 97.7604 26.0329L98.7283 21.0266C98.7283 21.0266 99.1827 15.8061 98.7283 12.5158L98.7202 12.4571C98.4788 10.7088 98.3381 9.68961 97.7604 8.01012C96.8802 5.45118 94.3727 2.00253 94.3727 2.00253L92.4368 0C92.4368 0 90.3462 0.526378 89.0491 1.00126C87.6922 1.49805 85.6613 2.50316 85.6613 2.50316C85.6613 2.50316 82.7447 5.01475 81.3057 7.00885C79.8891 8.97194 78.4019 12.5158 78.4019 12.5158L71.1425 9.51201L63.3991 8.51075C63.3991 8.51075 59.276 8.0535 56.6236 8.01012C53.2168 7.9544 47.9123 8.51075 47.9123 8.51075L43.5566 9.51201L40.1689 10.5133L36.2972 12.5158C36.2972 12.5158 34.4449 9.29064 32.9094 7.50948C31.3947 5.7524 28.5538 3.50443 28.5538 3.50443L25.65 1.00126L23.7142 0.500632C23.7142 0.500632 22.1908 0.191505 21.2943 0.500632C20.3978 0.809759 19.3585 2.00253 19.3585 2.00253L16.9387 5.00632L15.9708 11.0139V15.019V26.5335L14.0349 27.5348L9.67925 33.5424L5.80755 40.0506L2.41981 48.5613L0.483962 58.574Z" fill="white"/>
    <ellipse cx="75.9821" cy="51.0645" rx="15.9708" ry="17.0215" fill="#DBB222"/>
    <ellipse cx="37.2651" cy="51.0645" rx="15.9708" ry="17.0215" fill="#DBB222"/>
    <path d="M57.1644 76.1332C57.1644 76.1332 49.999 69.2152 53.0302 68.2979C54.6141 67.8186 57.0858 69.5514 57.0858 69.5514C57.0858 69.5514 59.4806 67.7612 61.068 68.1724C64.1305 68.9656 57.1644 76.1332 57.1644 76.1332Z" fill="#ED6CA8"/>
    <ellipse cx="75.9821" cy="51.5651" rx="2.41981" ry="9.51201" fill="black"/>
    <ellipse cx="37.2651" cy="51.5651" rx="2.41981" ry="9.51201" fill="black"/>
    <ellipse cx="39.6849" cy="48.0607" rx="2.90377" ry="3.00379" fill="white"/>
    <ellipse cx="73.5623" cy="48.0607" rx="2.90377" ry="3.00379" fill="white"/>
</svg>
