<svg width="37" height="37" viewBox="0 0 37 37" fill="none" xmlns="http://www.w3.org/2000/svg">
<rect x="0.499512" y="0.5" width="36" height="36" rx="3.5" stroke="white"/>
<path d="M14.9175 24.8072L22.8075 17.2542C23.0318 17.0436 23.2105 16.7892 23.3326 16.5068C23.4548 16.2244 23.5178 15.9199 23.5178 15.6123C23.5178 15.3046 23.4548 15.0001 23.3326 14.7177C23.2105 14.4353 23.0318 14.1809 22.8075 13.9702C22.3433 13.5335 21.7299 13.2904 21.0925 13.2904C20.4551 13.2904 19.8418 13.5335 19.3775 13.9702L11.5435 21.4683C11.1173 21.8685 10.7776 22.3518 10.5454 22.8884C10.3132 23.4251 10.1934 24.0036 10.1934 24.5882C10.1934 25.1729 10.3132 25.7514 10.5454 26.2881C10.7776 26.8247 11.1173 27.308 11.5435 27.7083C13.3435 29.4313 16.2615 29.4313 18.0615 27.7083L26.0105 20.1003C28.6625 17.5603 28.6625 13.4442 26.0105 10.9043C23.3575 8.36525 19.0565 8.36525 16.4035 10.9043L9.99951 17.0343" stroke="white" stroke-width="1.5" stroke-linecap="round"/>
</svg>
