<svg width="1439" height="1072" viewBox="0 0 1439 1072" fill="none" xmlns="http://www.w3.org/2000/svg">
<path fill-rule="evenodd" clip-rule="evenodd" d="M1088.12 164.477C1161.83 174.615 1244.47 112.11 1305.64 154.47C1364.61 195.309 1375.14 284.995 1364.61 355.951C1354.16 426.334 1299.33 478.561 1249.93 529.768C1201.06 580.42 1152.05 642.92 1081.92 648.949C1013.15 654.861 951.808 606.124 900.63 559.796C859.653 522.701 830.398 471.68 825.301 416.641C821.084 371.094 862.925 336.567 875.896 292.703C885.825 259.127 874.466 221.863 891.882 191.488C912.401 155.7 939.903 115.414 980.77 109.789C1021.55 104.176 1047.34 158.868 1088.12 164.477Z" fill="url(#paint0_linear_1201_2)" fill-opacity="0.2" stroke="black"/>
<path fill-rule="evenodd" clip-rule="evenodd" d="M194.817 883.251C153.293 821.512 51.6304 801.486 42.4975 727.645C33.6923 656.454 93.5865 588.874 153.535 549.48C213 510.404 288.473 516.527 359.575 519.283C429.906 522.009 509.168 516.949 560.364 565.249C610.577 612.621 615.066 690.835 614.585 759.865C614.2 815.138 595.62 870.939 557.955 911.393C526.785 944.871 473.164 936.65 431.803 956.184C400.143 971.136 379.908 1004.43 345.65 1011.66C305.288 1020.19 256.92 1026.5 225.508 999.756C194.162 973.07 217.791 917.411 194.817 883.251Z" fill="url(#paint1_linear_1201_2)" fill-opacity="0.2" stroke="black"/>
<path d="M1262.17 200.209L1264.3 193.628L1267.37 199.814L1273.3 202.284L1267.81 205.64L1265.7 212.195L1262.61 206.034L1256.7 203.54L1262.17 200.209Z" fill="white"/>
<path d="M582.167 499.209L584.297 492.628L587.373 498.814L593.297 501.284L587.814 504.64L585.703 511.195L582.608 505.034L576.703 502.54L582.167 499.209Z" fill="white"/>
<path d="M232.167 954.209L234.297 947.628L237.373 953.814L243.297 956.284L237.814 959.64L235.703 966.195L232.608 960.034L226.703 957.54L232.167 954.209Z" fill="white"/>
<path d="M105.083 702.263L106.145 698.943L107.684 702.066L110.645 703.314L107.907 705.006L106.855 708.314L105.306 705.203L102.355 703.942L105.083 702.263Z" fill="white"/>
<path d="M125.852 726.633L128.176 718.933L131.61 726.196L138.176 729.119L132.127 733.024L129.824 740.695L126.369 733.46L119.824 730.509L125.852 726.633Z" fill="white"/>
<path d="M124.139 660.732L125.945 655.526L128.497 660.402L133.445 662.331L128.845 665.002L127.055 670.188L124.487 665.332L119.555 663.383L124.139 660.732Z" fill="white"/>
<path d="M1217.45 243.982L1218.95 238.807L1221.18 243.7L1225.45 245.678L1221.53 248.294L1220.05 253.45L1217.8 248.577L1213.55 246.579L1217.45 243.982Z" fill="white"/>
<path d="M1247.45 324.626L1248.95 319.45L1251.18 324.343L1255.45 326.322L1251.53 328.938L1250.05 334.094L1247.8 329.22L1243.55 327.223L1247.45 324.626Z" fill="white"/>
<defs>
<linearGradient id="paint0_linear_1201_2" x1="1210.7" y1="108.241" x2="-24.2304" y2="2386.31" gradientUnits="userSpaceOnUse">
<stop/>
<stop offset="1" stop-opacity="0"/>
</linearGradient>
<linearGradient id="paint1_linear_1201_2" x1="71.232" y1="829.254" x2="2593.08" y2="233.482" gradientUnits="userSpaceOnUse">
<stop/>
<stop offset="1" stop-opacity="0"/>
</linearGradient>
</defs>
</svg>
