<svg width="834" height="359" viewBox="0 0 834 359" fill="none" xmlns="http://www.w3.org/2000/svg">
<path d="M0 188H834V280.727V358L0 354.909V188Z" fill="#363636"/>
<path d="M0 277H834V359H0V277Z" fill="#222222"/>
<path d="M96.8465 37.79C96.8465 37.79 102.622 42.8855 104.991 47.2374C108.109 52.9645 108.122 57.1551 108.792 63.7703C110.435 80.0051 97.4488 88.4367 100.104 104.512C102.458 118.758 114.851 122.208 117.48 136.397C120.056 150.304 113.136 172.415 113.136 172.415" stroke="#9870EB" stroke-width="2"/>
<ellipse cx="93.0457" cy="16.5329" rx="7.05872" ry="16.5329" fill="#86E9B9"/>
<ellipse cx="93.0457" cy="47.237" rx="7.05872" ry="16.5329" fill="#86E9B9"/>
<ellipse cx="7.67453" cy="15.2068" rx="7.67453" ry="15.2068" transform="matrix(0.0458449 -0.998949 0.998531 0.054191 92.5027 40.1323)" fill="#86E9B9"/>
<ellipse cx="7.67453" cy="15.2068" rx="7.67453" ry="15.2068" transform="matrix(0.0458449 -0.998949 0.998531 0.054191 62.0959 40.1323)" fill="#86E9B9"/>
<ellipse cx="93.0457" cy="32.4758" rx="4.8868" ry="5.31415" fill="white"/>
<path d="M732.615 78.3584C732.615 78.3584 727.014 83.4539 724.717 87.8058C721.694 93.5328 721.681 97.7235 721.031 104.339C719.438 120.573 732.031 129.005 729.456 145.081C727.174 159.327 715.156 162.777 712.607 176.965C710.108 190.872 716.819 212.984 716.819 212.984" stroke="#9870EB" stroke-width="2"/>
<ellipse cx="6.84486" cy="16.5329" rx="6.84486" ry="16.5329" transform="matrix(-1 0 0 1 743.146 40.5684)" fill="#86E9B9"/>
<ellipse cx="6.84486" cy="16.5329" rx="6.84486" ry="16.5329" transform="matrix(-1 0 0 1 743.146 71.2725)" fill="#86E9B9"/>
<ellipse cx="7.67405" cy="14.7475" rx="7.67405" ry="14.7475" transform="matrix(-0.0444587 -0.999011 -0.998438 0.0558789 736.83 80.7007)" fill="#86E9B9"/>
<ellipse cx="7.67405" cy="14.7475" rx="7.67405" ry="14.7475" transform="matrix(-0.0444587 -0.999011 -0.998438 0.0558789 766.312 80.7007)" fill="#86E9B9"/>
<ellipse cx="4.73875" cy="5.31415" rx="4.73875" ry="5.31415" transform="matrix(-1 0 0 1 741.036 67.73)" fill="white"/>
<path d="M231.201 240.978H-47.3827L-56.2591 226.123C-56.2591 226.123 -59.1888 220.084 -58.9904 215.995C-58.8003 212.079 -55.5763 206.542 -55.5763 206.542L-46.6999 197.089L-43.2859 191.687L-44.6515 170.756C-44.6515 170.756 -44.7687 164.911 -43.9687 163.328L-41.9203 159.277L-37.8235 157.252L-24.1674 149.149L-20.0706 146.448C-20.0706 146.448 -18.6555 144.476 -18.0222 143.072C-16.7009 140.143 -16.6566 134.97 -16.6566 134.97L-14.6082 126.192C-14.6082 126.192 -13.8806 121.131 -11.877 118.765C-10.4045 117.025 -7.09739 115.389 -7.09739 115.389L9.28986 114.038L16.1179 113.363L18.8491 112.013L23.6287 104.585L29.0911 97.158C29.0911 97.158 32.9761 91.9902 36.602 90.4059C39.0893 89.3191 43.43 89.0555 43.43 89.0555L49.5752 89.7307L59.8172 93.1067H69.3765L87.8121 80.953C87.8121 80.953 90.2225 79.6025 91.9089 79.6025C93.5954 79.6025 96.0058 80.953 96.0058 80.953L108.979 89.0555L117.173 93.7819L120.587 94.4571L124.683 93.1067L133.56 91.0811C133.56 91.0811 135.399 89.0322 136.974 88.3803C139.188 87.4639 140.809 87.7377 143.119 88.3803C145.189 88.9558 147.899 91.0811 147.899 91.0811L162.92 107.286L164.969 111.337L167.017 112.688L179.99 114.713L188.867 116.739C188.867 116.739 192.406 118.512 194.329 120.115C195.482 121.077 197.06 122.816 197.06 122.816L201.157 141.047L201.84 144.423L203.888 146.448L224.373 159.952C224.373 159.952 226.983 162.104 227.787 164.004C228.413 165.483 228.469 168.055 228.469 168.055L227.104 194.388L237.346 206.542L241.443 212.619C241.443 212.619 242.808 215.426 242.808 217.345C242.808 219.265 241.443 222.072 241.443 222.072L231.201 240.978Z" fill="#6034BB"/>
<path d="M108.979 242.511L103.517 242.511L34.5538 93.2899L36.6023 91.9395L39.3335 91.2642L108.979 242.511Z" fill="#4F2B99"/>
<path d="M105.562 242.511L99.4171 242.511L-12.5594 121.648L-11.8766 120.298L-10.5117 118.948L105.562 242.511Z" fill="#4F2B99"/>
<path d="M-24.1664 148.474L-30.3116 152.525L75.5227 240.303H78.2539L-24.1664 148.474Z" fill="#9870EB"/>
<path d="M167.018 113.363L158.142 102.56L96.6896 213.969L100.786 223.422L167.018 113.363Z" fill="#4F2B99"/>
<path d="M192.282 121.649L104.2 231.709L108.297 239.811L197.744 125.701L195.696 123L192.282 121.649Z" fill="#6E51AB"/>
<ellipse cx="39.933" cy="88.8361" rx="39.933" ry="88.8361" transform="matrix(0.898336 0.439308 -0.349455 0.936953 258.622 54.7671)" fill="#4F2B99"/>
<path d="M291.604 80.5302C291.604 80.5302 281.492 90.2693 276.064 97.6377C270.513 105.173 263.725 118.558 263.725 118.558C263.725 118.558 257.646 131.683 254.276 140.375C249.4 152.947 246.144 159.956 243.544 173.386C241.817 182.31 241.127 187.466 240.967 196.605C240.836 204.097 242.09 215.75 242.09 215.75" stroke="#9870EB"/>
<ellipse cx="24.6139" cy="60.6071" rx="24.6139" ry="60.6071" transform="matrix(0.628518 -0.777795 0.686384 0.727239 132.89 194.143)" fill="#9870EB"/>
<ellipse cx="39.9237" cy="88.8532" rx="39.9237" ry="88.8532" transform="matrix(0.899378 -0.437171 0.347606 0.937641 152.325 119.381)" fill="#7248C8"/>
<path d="M191.388 109C191.388 109 190.515 124.367 191.388 134.127C192.282 144.107 195.989 159.253 195.989 159.253C195.989 159.253 200.023 173.621 203.147 182.585C207.664 195.551 209.812 203.232 216.438 214.891C220.842 222.638 223.599 226.855 229.219 233.437C233.827 238.833 242 246 242 246" stroke="#9870EB"/>
<path d="M418.116 139.767L425.6 183.688L426.432 193.488L420.057 205.467L405.921 211.638H391.508L380.976 205.467C380.976 205.467 358.908 179.15 348.824 158.279C345.636 151.682 341.34 140.856 341.34 140.856L336.906 126.337L338.846 124.522C338.846 124.522 339.722 123.319 339.954 122.344C340.279 120.984 339.677 118.714 339.677 118.714L338.846 115.81C338.846 115.81 337.485 114.015 336.351 113.632C335.194 113.241 333.302 113.995 333.302 113.995L330.531 97.661C330.531 97.661 330.025 87.8437 330.808 81.6898C331.248 78.2307 331.429 76.2084 332.471 72.9782C333.511 69.7532 336.074 65.3555 336.074 65.3555C336.074 65.3555 339.401 61.8982 341.895 60.6368C343.56 59.7944 344.552 59.4004 346.329 59.1848C349.165 58.841 350.754 59.842 353.536 60.6368C357.984 61.9075 360.514 62.787 364.623 65.3555C369.744 68.5575 372.052 71.698 376.541 76.245C387.62 87.4674 402.041 109.276 402.041 109.276C402.041 109.276 407.284 115.984 410.078 120.892C413.931 127.658 418.116 139.767 418.116 139.767Z" fill="#7D62B5"/>
<path d="M414.236 205.397C418.569 189.415 403.308 154.758 387.092 125.09C370.876 95.4215 352.691 57.5255 341.895 61.2931" stroke="#9870EB"/>
<path d="M380.144 112.474L331.085 99.7695" stroke="#9870EB"/>
<path d="M390.677 131.712L397.053 102.227" stroke="#9870EB"/>
<path d="M490.774 155.994L498.258 199.915L499.089 209.715L492.714 221.694L478.578 227.865H464.166L453.633 221.694C453.633 221.694 431.565 195.377 421.481 174.506C418.294 167.909 413.998 157.083 413.998 157.083L409.563 142.564L411.503 140.749C411.503 140.749 412.379 139.547 412.612 138.571C412.937 137.211 412.335 134.941 412.335 134.941L411.503 132.037C411.503 132.037 410.142 130.242 409.009 129.859C407.851 129.468 405.96 130.222 405.96 130.222L403.188 113.888C403.188 113.888 402.682 104.071 403.465 97.9168C403.905 94.4577 404.086 92.4355 405.128 89.2052C406.169 85.9802 408.732 81.5826 408.732 81.5826C408.732 81.5826 412.058 78.1252 414.552 76.8638C416.217 76.0215 417.209 75.6274 418.987 75.4119C421.822 75.0681 423.411 76.069 426.193 76.8638C430.641 78.1345 433.172 79.014 437.28 81.5826C442.402 84.7845 444.709 87.925 449.198 92.4721C460.278 103.694 474.698 125.503 474.698 125.503C474.698 125.503 479.942 132.211 482.736 137.119C486.588 143.885 490.774 155.994 490.774 155.994Z" fill="#7248C8"/>
<path d="M486.894 221.624C491.227 205.642 475.965 170.985 459.749 141.317C443.534 111.649 425.349 73.7525 414.553 77.5202" stroke="#9870EB"/>
<path d="M452.802 128.701L403.743 115.997" stroke="#9870EB"/>
<path d="M463.335 147.939L469.71 118.454" stroke="#9870EB"/>
<path d="M535.373 249.464H358.249L352.606 239.01C352.606 239.01 350.743 234.76 350.869 231.883C350.99 229.128 353.04 225.231 353.04 225.231L358.683 218.579L360.854 214.778L359.986 200.048C359.986 200.048 359.911 195.935 360.42 194.822L361.722 191.971L364.327 190.545L373.01 184.843L375.614 182.943C375.614 182.943 376.514 181.555 376.917 180.567C377.757 178.506 377.785 174.865 377.785 174.865L379.087 168.688C379.087 168.688 379.55 165.127 380.824 163.462C381.76 162.238 383.863 161.086 383.863 161.086L394.282 160.136L398.623 159.661L400.36 158.71L403.399 153.484L406.872 148.257C406.872 148.257 409.342 144.621 411.647 143.506C413.228 142.741 415.988 142.555 415.988 142.555L419.895 143.031L426.407 145.406H432.485L444.207 136.854C444.207 136.854 445.739 135.903 446.811 135.903C447.884 135.903 449.416 136.854 449.416 136.854L457.664 142.555L462.874 145.881L465.045 146.357L467.649 145.406L473.293 143.981C473.293 143.981 474.462 142.539 475.464 142.08C476.871 141.435 477.902 141.628 479.371 142.08C480.687 142.485 482.41 143.981 482.41 143.981L491.961 155.384L493.263 158.235L494.565 159.186L502.814 160.611L508.457 162.036C508.457 162.036 510.708 163.284 511.93 164.412C512.664 165.089 513.667 166.313 513.667 166.313L516.272 179.142L516.706 181.517L518.008 182.943L531.032 192.446C531.032 192.446 532.692 193.96 533.203 195.297C533.601 196.338 533.637 198.148 533.637 198.148L532.768 216.678L539.28 225.231L541.885 229.507C541.885 229.507 542.753 231.482 542.753 232.833C542.753 234.184 541.885 236.159 541.885 236.159L535.373 249.464Z" fill="#6034BB"/>
<path d="M457.663 249.464L454.19 249.464L410.343 144.456L411.646 143.506L413.382 143.031L457.663 249.464Z" fill="#4F2B99"/>
<path d="M455.494 249.464L451.587 249.464L380.392 164.413L380.827 163.462L381.694 162.512L455.494 249.464Z" fill="#4F2B99"/>
<path d="M373.011 184.368L369.104 187.219L436.393 248.988H438.13L373.011 184.368Z" fill="#9870EB"/>
<path d="M494.567 159.661L488.924 152.059L449.852 230.458L452.457 237.11L494.567 159.661Z" fill="#4F2B99"/>
<path d="M510.629 164.412L454.627 241.861L457.231 247.563L514.102 167.263L512.8 165.362L510.629 164.412Z" fill="#6E51AB"/>
<path d="M432.048 273.552H234.288L227.987 261.815C227.987 261.815 225.907 257.043 226.048 253.812C226.183 250.718 228.471 246.343 228.471 246.343L234.773 238.874L237.196 234.606L236.227 218.068C236.227 218.068 236.144 213.449 236.711 212.199L238.166 208.998L241.074 207.398L250.768 200.996L253.676 198.862C253.676 198.862 254.681 197.304 255.13 196.194C256.068 193.879 256.1 189.792 256.1 189.792L257.554 182.857C257.554 182.857 258.07 178.858 259.493 176.988C260.538 175.614 262.886 174.321 262.886 174.321L274.518 173.254L279.366 172.72L281.304 171.653L284.697 165.785L288.575 159.916C288.575 159.916 291.333 155.833 293.907 154.581C295.672 153.723 298.754 153.514 298.754 153.514L303.116 154.048L310.387 156.715H317.173L330.26 147.112C330.26 147.112 331.971 146.045 333.168 146.045C334.365 146.045 336.076 147.112 336.076 147.112L345.285 153.514L351.102 157.249L353.525 157.782L356.434 156.715L362.735 155.115C362.735 155.115 364.04 153.496 365.158 152.981C366.73 152.257 367.881 152.473 369.521 152.981C370.99 153.436 372.914 155.115 372.914 155.115L383.577 167.919L385.031 171.12L386.485 172.187L395.695 173.787L401.996 175.388C401.996 175.388 404.508 176.788 405.874 178.055C406.692 178.815 407.812 180.189 407.812 180.189L410.721 194.594L411.205 197.261L412.659 198.862L427.201 209.532C427.201 209.532 429.054 211.232 429.624 212.733C430.069 213.902 430.109 215.934 430.109 215.934L429.139 236.74L436.41 246.343L439.318 251.145C439.318 251.145 440.288 253.362 440.288 254.879C440.288 256.396 439.318 258.614 439.318 258.614L432.048 273.552Z" fill="#6034BB"/>
<path d="M345.284 273.552L341.406 273.552L292.451 155.648L293.906 154.581L295.844 154.048L345.284 273.552Z" fill="#4F2B99"/>
<path d="M342.861 273.552L338.499 273.552L259.009 178.055L259.494 176.988L260.463 175.921L342.861 273.552Z" fill="#4F2B99"/>
<path d="M250.77 200.462L246.408 203.663L321.537 273.018H323.476L250.77 200.462Z" fill="#9870EB"/>
<path d="M386.487 172.72L380.186 164.184L336.563 252.211L339.471 259.68L386.487 172.72Z" fill="#4F2B99"/>
<path d="M404.419 178.056L341.892 265.016L344.8 271.418L408.297 181.257L406.843 179.123L404.419 178.056Z" fill="#6E51AB"/>
<ellipse cx="36.304" cy="74.6453" rx="36.304" ry="74.6453" transform="matrix(0.916599 0.399808 -0.385781 0.922591 623.987 46.6533)" fill="#6034BB"/>
<path d="M654.581 67.9693C654.581 67.9693 645.201 76.0272 640.166 82.1237C635.017 88.3585 628.721 99.4329 628.721 99.4329C628.721 99.4329 623.082 110.292 619.955 117.484C615.433 127.886 612.412 133.685 610.001 144.796C608.398 152.18 607.759 156.446 607.61 164.007C607.488 170.206 608.652 179.848 608.652 179.848" stroke="#9870EB"/>
<ellipse cx="21.3736" cy="53.0935" rx="21.3736" ry="53.0935" transform="matrix(0.671403 -0.741093 0.726796 0.686853 507.356 161.971)" fill="#7248C8"/>
<ellipse cx="36.3028" cy="74.6478" rx="36.3028" ry="74.6478" transform="matrix(0.917479 -0.397783 0.383801 0.923416 525.386 100.113)" fill="#6E51AB"/>
<path d="M561.635 92.3613C561.635 92.3613 560.821 104.852 561.635 112.784C562.467 120.897 565.92 133.207 565.92 133.207C565.92 133.207 569.676 144.885 572.585 152.172C576.793 162.71 578.792 168.954 584.964 178.43C589.065 184.727 591.633 188.154 596.866 193.504C601.157 197.89 608.769 203.716 608.769 203.716" stroke="#9870EB"/>
<path d="M700.845 123.219L687.107 160.58L684.974 169.071L690.586 180.811L705.544 188.86L721.572 191.516L734.045 188.015C734.045 188.015 761.831 168.869 775.618 152.319C779.976 147.088 786.089 138.33 786.089 138.33L792.811 126.341L790.877 124.383C790.877 124.383 790.052 123.161 789.913 122.257C789.72 120.998 790.669 119.107 790.669 119.107L791.952 116.699C791.952 116.699 793.686 115.366 794.994 115.237C796.33 115.106 798.34 116.12 798.34 116.12L803.437 102.223C803.437 102.223 805.21 93.6569 805.098 88.0845C805.035 84.9524 805.084 83.1354 804.323 80.0941C803.564 77.0577 801.256 72.7065 801.256 72.7065C801.256 72.7065 797.983 69.0438 795.365 67.4715C793.618 66.4216 792.563 65.8912 790.613 65.3735C787.502 64.5477 785.612 65.1376 782.42 65.3259C777.317 65.6269 774.395 65.9363 769.509 67.4446C763.419 69.3249 760.466 71.6696 754.913 74.8529C741.208 82.7094 722.483 99.2881 722.483 99.2881C722.483 99.2881 715.824 104.238 712.112 108.052C706.993 113.31 700.845 123.219 700.845 123.219Z" fill="#7248C8"/>
<path d="M697.374 181.665C694.527 166.77 715.772 139.014 737.463 115.834C759.155 92.654 784.05 62.5798 795.592 67.8929" stroke="#9870EB"/>
<path d="M746.746 105.987L802.868 103.823" stroke="#9870EB"/>
<path d="M732.353 121.172L728.899 93.9896" stroke="#9870EB" stroke-width="2"/>
<path d="M593.745 165.385L582.841 224.223L581.629 237.352L590.918 253.399L611.516 261.665H632.517L647.864 253.399C647.864 253.399 680.02 218.143 694.714 190.184C699.358 181.347 705.618 166.844 705.618 166.844L712.08 147.393L709.253 144.962C709.253 144.962 707.977 143.351 707.638 142.044C707.165 140.223 708.042 137.182 708.042 137.182L709.253 133.292C709.253 133.292 711.236 130.887 712.888 130.374C714.575 129.85 717.331 130.86 717.331 130.86L721.369 108.978C721.369 108.978 722.106 95.8268 720.965 87.5828C720.324 82.9489 720.061 80.2399 718.542 75.9125C717.026 71.5922 713.292 65.701 713.292 65.701C713.292 65.701 708.444 61.0695 704.811 59.3796C702.384 58.2512 700.939 57.7233 698.349 57.4345C694.217 56.974 691.902 58.3149 687.848 59.3796C681.367 61.0819 677.679 62.2601 671.693 65.701C664.23 69.9904 660.868 74.1975 654.326 80.2889C638.182 95.3228 617.17 124.539 617.17 124.539C617.17 124.539 609.529 133.525 605.458 140.099C599.845 149.164 593.745 165.385 593.745 165.385Z" fill="#9870EB"/>
<path d="M633.73 154.594L624.439 115.095" stroke="#6034BB" stroke-width="2"/>
<path d="M681 110.175C677.855 107.827 672.179 105.425 672.179 105.425L668 104L687.964 199H696.786V195.2L700.036 189.975L707 182.85C707 182.85 703.851 168.328 703.75 164.8C703.605 159.739 702.886 156.935 701.893 151.975C700.453 144.786 699.468 140.731 696.786 133.925C694.663 128.539 693.511 125.404 690.286 120.625C687.223 116.086 685.355 113.426 681 110.175Z" fill="#6D51A7"/>
<path d="M572.583 138.557L572.107 147.31V179.403L683.039 235.81L684.467 155.09C684.467 155.09 684.808 142.456 683.039 134.667C681.976 129.987 679.23 122.996 679.23 122.996C679.23 122.996 677.474 117.342 675.421 114.244C673.211 110.907 668.28 106.95 668.28 106.95L669.232 102.087C669.232 102.087 669.679 97.0165 669.232 93.8206L669.224 93.7635C668.986 92.0654 668.848 91.0755 668.28 89.4443C667.414 86.9588 664.947 83.6091 664.947 83.6091L663.043 81.6641C663.043 81.6641 660.986 82.1753 659.71 82.6366C658.375 83.1191 656.377 84.0954 656.377 84.0954C656.377 84.0954 653.508 86.5349 652.092 88.4717C650.699 90.3785 649.236 93.8206 649.236 93.8206L642.094 90.9031L634.476 89.9305C634.476 89.9305 630.42 89.4864 627.811 89.4443C624.459 89.3902 619.241 89.9305 619.241 89.9305L614.956 90.9031L611.623 91.8756L607.815 93.8206C607.815 93.8206 605.992 90.688 604.482 88.958C602.992 87.2514 600.197 85.0679 600.197 85.0679L597.34 82.6366L595.436 82.1503C595.436 82.1503 593.937 81.8501 593.055 82.1503C592.173 82.4506 591.151 83.6091 591.151 83.6091L588.77 86.5267L587.818 92.3619V96.252V107.436L585.914 108.409L581.629 114.244L577.82 120.565L574.487 128.832L572.583 138.557Z" fill="black"/>
<ellipse cx="646.856" cy="131.263" rx="15.7114" ry="16.533" fill="#DBB222"/>
<ellipse cx="608.767" cy="131.263" rx="15.7114" ry="16.533" fill="#DBB222"/>
<path d="M628.344 155.612C628.344 155.612 621.295 148.893 624.277 148.002C625.835 147.536 628.266 149.219 628.266 149.219C628.266 149.219 630.622 147.48 632.184 147.88C635.197 148.65 628.344 155.612 628.344 155.612Z" fill="#ED6CA8"/>
<ellipse cx="646.856" cy="131.749" rx="2.38052" ry="9.239" fill="black"/>
<ellipse cx="608.766" cy="131.749" rx="2.38052" ry="9.239" fill="black"/>
<ellipse cx="611.146" cy="128.345" rx="2.85662" ry="2.91758" fill="white"/>
<ellipse cx="644.473" cy="128.345" rx="2.85662" ry="2.91758" fill="white"/>
<path d="M885.62 256.577H708.496L702.852 246.124C702.852 246.124 700.99 241.874 701.116 238.997C701.237 236.242 703.286 232.345 703.286 232.345L708.93 225.693L711.101 221.892L710.232 207.162C710.232 207.162 710.158 203.049 710.667 201.935L711.969 199.084L714.574 197.659L723.256 191.957L725.861 190.057C725.861 190.057 726.761 188.669 727.163 187.681C728.003 185.619 728.032 181.979 728.032 181.979L729.334 175.802C729.334 175.802 729.797 172.241 731.071 170.576C732.007 169.352 734.109 168.2 734.109 168.2L744.528 167.25L748.87 166.774L750.606 165.824L753.645 160.598L757.118 155.371C757.118 155.371 759.588 151.734 761.894 150.619C763.475 149.855 766.235 149.669 766.235 149.669L770.142 150.144L776.654 152.52H782.732L794.453 143.967C794.453 143.967 795.986 143.017 797.058 143.017C798.13 143.017 799.663 143.967 799.663 143.967L807.911 149.669L813.121 152.995L815.291 153.47L817.896 152.52L823.54 151.095C823.54 151.095 824.709 149.653 825.71 149.194C827.118 148.549 828.149 148.742 829.617 149.194C830.933 149.599 832.656 151.095 832.656 151.095L842.207 162.498L843.51 165.349L844.812 166.299L853.06 167.725L858.704 169.15C858.704 169.15 860.954 170.398 862.177 171.526C862.91 172.203 863.913 173.427 863.913 173.427L866.518 186.255L866.952 188.631L868.255 190.057L881.279 199.56C881.279 199.56 882.938 201.074 883.449 202.41C883.847 203.452 883.883 205.261 883.883 205.261L883.015 223.792L889.527 232.345L892.132 236.621C892.132 236.621 893 238.596 893 239.947C893 241.298 892.132 243.273 892.132 243.273L885.62 256.577Z" fill="#6034BB"/>
<path d="M807.91 256.577L804.437 256.577L760.59 151.57L761.892 150.62L763.629 150.144L807.91 256.577Z" fill="#4F2B99"/>
<path d="M805.741 256.578L801.834 256.578L730.639 171.526L731.073 170.576L731.941 169.626L805.741 256.578Z" fill="#4F2B99"/>
<path d="M723.257 191.482L719.35 194.333L786.64 256.102H788.377L723.257 191.482Z" fill="#9870EB"/>
<path d="M844.814 166.775L839.17 159.172L800.099 237.572L802.704 244.224L844.814 166.775Z" fill="#4F2B99"/>
<path d="M860.876 171.526L804.873 248.975L807.478 254.677L864.349 174.377L863.046 172.476L860.876 171.526Z" fill="#6E51AB"/>
<ellipse cx="37.1036" cy="76.9035" rx="37.1036" ry="76.9035" transform="matrix(0.736478 0.676461 -0.589459 0.807798 726.567 115.619)" fill="#775BB0"/>
<path d="M749.568 146.903C749.568 146.903 738.63 152.338 732.287 157.079C725.8 161.927 716.949 171.409 716.949 171.409C716.949 171.409 708.771 180.87 703.926 187.32C696.917 196.651 692.541 201.7 687.322 212.405C683.854 219.519 682.118 223.716 679.965 231.456C678.2 237.802 676.723 248.085 676.723 248.085" stroke="#9870EB"/>
<path d="M703.044 273.804H525.921L520.277 263.351C520.277 263.351 518.414 259.101 518.54 256.224C518.661 253.469 520.711 249.572 520.711 249.572L526.355 242.92L528.525 239.119L527.657 224.389C527.657 224.389 527.583 220.276 528.091 219.162L529.394 216.312L531.998 214.886L540.681 209.184L543.286 207.284C543.286 207.284 544.185 205.896 544.588 204.908C545.428 202.846 545.456 199.206 545.456 199.206L546.759 193.029C546.759 193.029 547.221 189.468 548.495 187.803C549.431 186.579 551.534 185.427 551.534 185.427L561.953 184.477L566.294 184.002L568.031 183.051L571.07 177.825L574.543 172.598C574.543 172.598 577.013 168.961 579.318 167.846C580.9 167.082 583.659 166.896 583.659 166.896L587.567 167.371L594.079 169.747H600.156L611.878 161.194C611.878 161.194 613.41 160.244 614.483 160.244C615.555 160.244 617.087 161.194 617.087 161.194L625.336 166.896L630.545 170.222L632.716 170.697L635.321 169.747L640.964 168.322C640.964 168.322 642.134 166.88 643.135 166.421C644.542 165.776 645.573 165.969 647.042 166.421C648.358 166.826 650.081 168.322 650.081 168.322L659.632 179.725L660.934 182.576L662.237 183.526L670.485 184.952L676.129 186.377C676.129 186.377 678.379 187.625 679.602 188.753C680.335 189.43 681.338 190.654 681.338 190.654L683.943 203.483L684.377 205.858L685.679 207.284L698.703 216.787C698.703 216.787 700.363 218.301 700.874 219.638C701.272 220.679 701.308 222.488 701.308 222.488L700.44 241.019L706.952 249.572L709.556 253.848C709.556 253.848 710.425 255.823 710.425 257.174C710.425 258.525 709.556 260.5 709.556 260.5L703.044 273.804Z" fill="#6034BB"/>
<path d="M625.335 273.804L621.861 273.805L578.015 168.797L579.317 167.847L581.054 167.371L625.335 273.804Z" fill="#4F2B99"/>
<path d="M623.166 273.805L619.259 273.805L548.064 188.753L548.498 187.803L549.366 186.853L623.166 273.805Z" fill="#4F2B99"/>
<path d="M540.682 208.709L536.775 211.56L604.065 273.329H605.801L540.682 208.709Z" fill="#9870EB"/>
<path d="M662.238 184.002L656.595 176.399L617.523 254.799L620.128 261.451L662.238 184.002Z" fill="#4F2B99"/>
<path d="M678.3 188.753L622.298 266.202L624.903 271.904L681.773 191.604L680.471 189.703L678.3 188.753Z" fill="#6E51AB"/>
<path d="M104.879 128.12L107.795 120.888L111.653 127.562L119.295 130.112L112.096 133.908L109.205 141.112L105.322 134.465L97.7053 131.888L104.879 128.12Z" fill="white"/>
<path d="M212.426 181.933L213.659 179.291L215.349 181.75L218.659 182.709L215.563 184.078L214.341 186.709L212.64 184.26L209.341 183.291L212.426 181.933Z" fill="white"/>
<path d="M292.426 129.666L293.659 126.364L295.349 129.438L298.659 130.637L295.563 132.347L294.341 135.637L292.64 132.575L289.341 131.364L292.426 129.666Z" fill="white"/>
<path d="M553.194 117.039L555.747 109.76L559.31 116.562L566.247 119.24L559.783 122.988L557.253 130.24L553.667 123.465L546.753 120.76L553.194 117.039Z" fill="white"/>
<path d="M529.083 154.346L530.12 150.352L531.669 154.125L534.62 155.649L531.907 157.67L530.88 161.649L529.322 157.89L526.38 156.352L529.083 154.346Z" fill="white"/>
<path d="M773.083 128.346L774.12 124.352L775.669 128.125L778.62 129.649L775.907 131.67L774.88 135.649L773.322 131.89L770.38 130.352L773.083 128.346Z" fill="white"/>
</svg>
